<svg width="16" height="19" viewBox="0 0 16 19" fill="none" xmlns="http://www.w3.org/2000/svg">
<path d="M8 4C4.68548 4 2 6.68548 2 10C2 13.3145 4.68548 16 8 16C11.3145 16 14 13.3145 14 10C14 6.68548 11.3145 4 8 4ZM8 14.8387C5.32661 14.8387 3.16129 12.6734 3.16129 10C3.16129 7.32661 5.32661 5.16129 8 5.16129C10.6734 5.16129 12.8387 7.32661 12.8387 10C12.8387 12.6734 10.6734 14.8387 8 14.8387ZM9.49516 12.3129L7.44113 10.8202C7.36613 10.7645 7.32258 10.6774 7.32258 10.5855V6.6129C7.32258 6.45323 7.45323 6.32258 7.6129 6.32258H8.3871C8.54677 6.32258 8.67742 6.45323 8.67742 6.6129V10.0411L10.2935 11.2169C10.4242 11.3113 10.4508 11.4927 10.3565 11.6234L9.90161 12.25C9.80726 12.3782 9.62581 12.4073 9.49516 12.3129Z" fill="#A78148"/>
</svg>
