<svg width="96" height="98" viewBox="0 0 96 98" fill="none" xmlns="http://www.w3.org/2000/svg">
<path d="M-0.000488281 49.3047C-0.000488281 62.0351 5.05664 74.2441 14.0584 83.2458C23.0601 92.2476 35.2691 97.3047 47.9995 97.3047C60.7299 97.3047 72.9389 92.2476 81.9406 83.2458C90.9424 74.2441 95.9995 62.0351 95.9995 49.3047C95.9995 36.5743 90.9424 24.3653 81.9406 15.3636C72.9389 6.36182 60.7299 1.30469 47.9995 1.30469C35.2691 1.30469 23.0601 6.36182 14.0584 15.3636C5.05664 24.3653 -0.000488281 36.5743 -0.000488281 49.3047Z" fill="#F0ECE7"/>
<path d="M38.7183 0.695312H80.3691V77.4209H38.7183V0.695312Z" fill="white"/>
<path d="M38.7183 11.6562H80.3691V65.3634H38.7183V11.6562Z" fill="#E5D9C8"/>
<path d="M38.7183 11.6562H80.3691V65.3634H38.7183V11.6562Z" stroke="#617B9C" stroke-linecap="round" stroke-linejoin="round"/>
<path d="M55.1597 6.17578H67.2173" stroke="#617B9C" stroke-linecap="round" stroke-linejoin="round"/>
<path d="M50.5503 6.17516C50.5503 6.5262 50.6897 6.86286 50.938 7.11109C51.1862 7.35931 51.5229 7.49876 51.8739 7.49876C52.2249 7.49876 52.5616 7.35931 52.8098 7.11109C53.058 6.86286 53.1975 6.5262 53.1975 6.17516C53.1975 5.82412 53.058 5.48746 52.8098 5.23924C52.5616 4.99101 52.2249 4.85156 51.8739 4.85156C51.5229 4.85156 51.1862 4.99101 50.938 5.23924C50.6897 5.48746 50.5503 5.82412 50.5503 6.17516Z" fill="#617B9C"/>
<path d="M38.7183 0.695312H80.3691V77.4209H38.7183V0.695312Z" stroke="#617B9C" stroke-linecap="round" stroke-linejoin="round"/>
<path d="M69.7847 36.9877C69.7848 36.8746 69.7627 36.7626 69.7195 36.658C69.6764 36.5535 69.613 36.4585 69.5331 36.3785C69.4532 36.2985 69.3583 36.235 69.2538 36.1917C69.1494 36.1484 69.0374 36.1261 68.9243 36.1261H62.8991V30.1009C62.8991 29.8723 62.8083 29.6532 62.6467 29.4916C62.4851 29.33 62.266 29.2393 62.0375 29.2393H56.8787C56.7656 29.2393 56.6536 29.2616 56.5491 29.3049C56.4447 29.3482 56.3498 29.4117 56.2699 29.4917C56.19 29.5717 56.1266 29.6667 56.0834 29.7712C56.0403 29.8758 56.0181 29.9878 56.0183 30.1009V36.1261H49.9859C49.8728 36.1261 49.7608 36.1484 49.6564 36.1917C49.5519 36.235 49.457 36.2985 49.3771 36.3785C49.2972 36.4585 49.2338 36.5535 49.1906 36.658C49.1475 36.7626 49.1253 36.8746 49.1255 36.9877V42.1477C49.1255 42.3759 49.2161 42.5947 49.3775 42.7561C49.5389 42.9174 49.7577 43.0081 49.9859 43.0081H56.0123V49.0345C56.0123 49.2626 56.1029 49.4815 56.2643 49.6429C56.4256 49.8042 56.6445 49.8949 56.8727 49.8949H62.0327C62.261 49.8949 62.48 49.8042 62.6415 49.6429C62.8031 49.4816 62.894 49.2628 62.8943 49.0345V43.0129H68.9195C69.1477 43.0129 69.3665 42.9222 69.5279 42.7609C69.6892 42.5995 69.7799 42.3806 69.7799 42.1525L69.7847 36.9877Z" fill="white" stroke="#617B9C" stroke-linecap="round" stroke-linejoin="round"/>
<path d="M53.8479 66.2798C51.2434 67.1898 49.1061 69.0958 47.905 71.5797C46.7039 74.0635 46.5371 76.9223 47.4411 79.529L47.9799 81.077C48.1675 81.6156 48.2471 82.1859 48.2142 82.7553C48.1813 83.3247 48.0366 83.8821 47.7884 84.3955C47.5401 84.909 47.1931 85.3685 46.7673 85.7479C46.3414 86.1273 45.845 86.4191 45.3064 86.6066C44.7677 86.7941 44.1974 86.8737 43.628 86.8409C43.0586 86.808 42.5013 86.6633 41.9878 86.415C41.4744 86.1668 41.0148 85.8198 40.6354 85.3939C40.2561 84.9681 39.9643 84.4716 39.7767 83.933L36.0567 73.253C40.8402 71.0022 44.6222 67.0616 46.6747 62.1898C48.7273 57.3179 48.9054 51.8591 47.1747 46.8638L44.2335 38.4122C43.816 37.2184 42.942 36.2389 41.8032 35.6886C40.6645 35.1384 39.354 35.0622 38.1591 35.477C37.8792 35.5681 37.6203 35.7142 37.3976 35.9067C37.1748 36.0992 36.9927 36.3342 36.8619 36.5979C36.7311 36.8616 36.6543 37.1488 36.6359 37.4426C36.6175 37.7365 36.6579 38.031 36.7547 38.309C36.8516 38.587 37.0029 38.8429 37.1999 39.0616C37.3969 39.2804 37.6355 39.4577 37.9019 39.5831C38.1682 39.7085 38.4569 39.7794 38.751 39.7919C39.0451 39.8043 39.3388 39.7579 39.6147 39.6554C39.701 39.6255 39.7956 39.6311 39.8777 39.671C39.9598 39.7108 40.0228 39.7816 40.0527 39.8678L42.9939 48.3182C44.4729 52.567 44.2035 57.2292 42.2449 61.2793C40.2864 65.3295 36.7991 68.4356 32.5503 69.9146C28.3016 71.3936 23.6393 71.1241 19.5892 69.1656C15.5391 67.207 12.4329 63.7198 10.954 59.471L8.01516 51.0206C8.00018 50.978 7.99376 50.9328 7.99627 50.8877C7.99879 50.8426 8.01018 50.7984 8.02981 50.7577C8.04943 50.717 8.07689 50.6806 8.11062 50.6506C8.14435 50.6205 8.18368 50.5974 8.22636 50.5826C8.7756 50.3859 9.22494 49.9802 9.4766 49.4539C9.72827 48.9276 9.76189 48.3231 9.57016 47.7721C9.37842 47.2211 8.97684 46.7681 8.4528 46.5117C7.92876 46.2553 7.32467 46.2162 6.77196 46.403C5.5778 46.8207 4.59823 47.6953 4.04835 48.8346C3.49847 49.974 3.42323 51.285 3.83916 52.4798L6.78036 60.9302C8.52572 65.9199 12.0547 70.0879 16.6882 72.6322C21.3218 75.1765 26.7326 75.9173 31.8796 74.7122L35.5995 85.3922C35.9602 86.5016 36.5386 87.5279 37.3009 88.4109C38.0632 89.294 38.994 90.016 40.0388 90.5348C41.0836 91.0536 42.2215 91.3587 43.3857 91.4322C44.55 91.5058 45.7172 91.3462 46.819 90.963C47.9207 90.5798 48.935 89.9805 49.8023 89.2004C50.6696 88.4202 51.3725 87.4749 51.8699 86.4197C52.3672 85.3645 52.649 84.2206 52.6988 83.0551C52.7485 81.8896 52.5652 80.726 52.1595 79.6322L51.6208 78.0842C51.1015 76.5856 51.1977 74.9422 51.8883 73.5144C52.5789 72.0867 53.8075 70.991 55.3047 70.4678C55.5797 70.3721 55.8332 70.2233 56.0506 70.0297C56.2681 69.836 56.4453 69.6015 56.5721 69.3394C56.6989 69.0773 56.7728 68.7929 56.7897 68.5022C56.8066 68.2115 56.766 67.9204 56.6703 67.6454C56.5747 67.3704 56.4258 67.117 56.2322 66.8995C56.0386 66.6821 55.8041 66.5049 55.542 66.3781C55.2799 66.2513 54.9954 66.1773 54.7047 66.1605C54.4141 66.1436 54.1229 66.1841 53.8479 66.2798Z" fill="white" stroke="#617B9C" stroke-linecap="round" stroke-linejoin="round"/>
<path d="M2.82764 46.9277L14.2162 42.9634L16.4814 49.4708L5.09286 53.4351L2.82764 46.9277Z" fill="#E5D9C8" stroke="#617B9C" stroke-linecap="round" stroke-linejoin="round"/>
<path d="M30.0708 36.9189L41.4593 32.9546L43.7246 39.462L32.336 43.4264L30.0708 36.9189Z" fill="#E5D9C8"/>
<path d="M30.0708 36.9189L41.4593 32.9546L43.7246 39.462L32.336 43.4264L30.0708 36.9189Z" stroke="#617B9C" stroke-linecap="round" stroke-linejoin="round"/>
<path d="M52.0581 65.5226C52.0581 66.6344 52.2771 67.7353 52.7025 68.7624C53.128 69.7896 53.7516 70.7229 54.5377 71.509C55.3239 72.2952 56.2572 72.9188 57.2843 73.3442C58.3115 73.7697 59.4123 73.9886 60.5241 73.9886C61.6359 73.9886 62.7368 73.7697 63.7639 73.3442C64.7911 72.9188 65.7243 72.2952 66.5105 71.509C67.2966 70.7229 67.9202 69.7896 68.3457 68.7624C68.7711 67.7353 68.9901 66.6344 68.9901 65.5226C68.9901 64.4109 68.7711 63.31 68.3457 62.2828C67.9202 61.2557 67.2966 60.3224 66.5105 59.5363C65.7243 58.7501 64.7911 58.1265 63.7639 57.7011C62.7368 57.2756 61.6359 57.0566 60.5241 57.0566C59.4123 57.0566 58.3115 57.2756 57.2843 57.7011C56.2572 58.1265 55.3239 58.7501 54.5377 59.5363C53.7516 60.3224 53.128 61.2557 52.7025 62.2828C52.2771 63.31 52.0581 64.4109 52.0581 65.5226Z" fill="white"/>
<path d="M56.5039 65.5222C56.5039 66.5887 56.9276 67.6115 57.6817 68.3656C58.4358 69.1197 59.4586 69.5434 60.5251 69.5434C61.5916 69.5434 62.6144 69.1197 63.3685 68.3656C64.1226 67.6115 64.5463 66.5887 64.5463 65.5222C64.5463 64.4557 64.1226 63.4329 63.3685 62.6788C62.6144 61.9246 61.5916 61.501 60.5251 61.501C59.4586 61.501 58.4358 61.9246 57.6817 62.6788C56.9276 63.4329 56.5039 64.4557 56.5039 65.5222Z" fill="#E5D9C8"/>
<path d="M52.0581 65.5226C52.0581 66.6344 52.2771 67.7353 52.7025 68.7624C53.128 69.7896 53.7516 70.7229 54.5377 71.509C55.3239 72.2952 56.2572 72.9188 57.2843 73.3442C58.3115 73.7697 59.4123 73.9886 60.5241 73.9886C61.6359 73.9886 62.7368 73.7697 63.7639 73.3442C64.7911 72.9188 65.7243 72.2952 66.5105 71.509C67.2966 70.7229 67.9202 69.7896 68.3457 68.7624C68.7711 67.7353 68.9901 66.6344 68.9901 65.5226C68.9901 64.4109 68.7711 63.31 68.3457 62.2828C67.9202 61.2557 67.2966 60.3224 66.5105 59.5363C65.7243 58.7501 64.7911 58.1265 63.7639 57.7011C62.7368 57.2756 61.6359 57.0566 60.5241 57.0566C59.4123 57.0566 58.3115 57.2756 57.2843 57.7011C56.2572 58.1265 55.3239 58.7501 54.5377 59.5363C53.7516 60.3224 53.128 61.2557 52.7025 62.2828C52.2771 63.31 52.0581 64.4109 52.0581 65.5226V65.5226Z" stroke="#617B9C" stroke-linecap="round" stroke-linejoin="round"/>
</svg>
