<svg width="12" height="18" viewBox="0 0 12 18" fill="none" xmlns="http://www.w3.org/2000/svg">
<path d="M10.8129 11.8251L10.7684 11.7806C10.7684 11.7807 10.7683 11.7807 10.7683 11.7808L10.7684 11.7806L10.8129 11.8251ZM10.8129 11.8251L10.7684 11.8695L10.7683 11.8694C10.7683 11.8694 10.7684 11.8695 10.7684 11.8695L10.8129 11.8251ZM6.45847 13.7479V14.9904L7.3191 14.0943L10.0988 11.1999L10.724 11.8251L6.01127 16.5379L1.29851 11.8251L1.92376 11.1999L4.70342 14.0943L5.56405 14.9904V13.7479L5.56405 1.25L6.45847 1.25L6.45847 13.7479ZM1.87934 11.1536L1.87944 11.1537C1.8794 11.1537 1.87936 11.1536 1.87931 11.1536L1.87934 11.1536Z" fill="#00A84F" stroke="#00A84F"/>
</svg>
