<svg width="12" height="10" viewBox="0 0 12 10" fill="none" xmlns="http://www.w3.org/2000/svg">
<path d="M11.75 0.292969C11.75 0.136719 11.6133 0 11.457 0L8.27344 0.0195312C8.11719 0.0195312 8 0.136719 8 0.292969V0.9375C8 1.09375 8.11719 1.23047 8.27344 1.23047L9.71875 1.17188L9.75781 1.21094L4.30859 6.66016C4.21094 6.75781 4.21094 6.89453 4.30859 6.99219L4.75781 7.44141C4.85547 7.53906 4.99219 7.53906 5.08984 7.44141L10.5391 1.99219L10.5781 2.03125L10.5195 3.47656C10.5195 3.63281 10.6562 3.75 10.8125 3.75H11.457C11.6133 3.75 11.7305 3.63281 11.7305 3.47656L11.75 0.292969ZM8.83984 4.57031L8.37109 5.03906C8.33203 5.07812 8.3125 5.15625 8.3125 5.21484V8.94531C8.3125 9.02344 8.25391 9.0625 8.19531 9.0625H1.55469C1.47656 9.0625 1.4375 9.02344 1.4375 8.94531V2.30469C1.4375 2.24609 1.47656 2.1875 1.55469 2.1875H7.43359C7.64844 2.1875 7.76562 1.95312 7.60938 1.79688L7.14062 1.32812C7.10156 1.28906 7.02344 1.25 6.96484 1.25H1.4375C0.910156 1.25 0.5 1.67969 0.5 2.1875V9.0625C0.5 9.58984 0.910156 10 1.4375 10H8.3125C8.82031 10 9.25 9.58984 9.25 9.0625V4.74609C9.25 4.53125 8.99609 4.43359 8.83984 4.57031Z" fill="#A78148"/>
</svg>
