<svg width="16" height="13" viewBox="0 0 16 13" fill="none" xmlns="http://www.w3.org/2000/svg">
<path d="M15.2991 1.95536H0.700893C0.647613 1.95536 0.596515 1.93419 0.55884 1.89652C0.521165 1.85884 0.5 1.80774 0.5 1.75446V0.950893C0.5 0.897613 0.521165 0.846515 0.55884 0.80884C0.596515 0.771166 0.647613 0.75 0.700893 0.75H15.2991C15.3524 0.75 15.4035 0.771166 15.4412 0.80884C15.4788 0.846515 15.5 0.897613 15.5 0.950893V1.75446C15.5 1.80774 15.4788 1.85884 15.4412 1.89652C15.4035 1.93419 15.3524 1.95536 15.2991 1.95536ZM15.2991 7.3125H0.700893C0.647613 7.3125 0.596515 7.29133 0.55884 7.25366C0.521165 7.21598 0.5 7.16489 0.5 7.11161V6.30803C0.5 6.25476 0.521165 6.20366 0.55884 6.16598C0.596515 6.12831 0.647613 6.10714 0.700893 6.10714H15.2991C15.3524 6.10714 15.4035 6.12831 15.4412 6.16598C15.4788 6.20366 15.5 6.25476 15.5 6.30803V7.11161C15.5 7.16489 15.4788 7.21598 15.4412 7.25366C15.4035 7.29133 15.3524 7.3125 15.2991 7.3125ZM15.2991 12.6696H0.700893C0.647613 12.6696 0.596515 12.6485 0.55884 12.6108C0.521165 12.5731 0.5 12.522 0.5 12.4687V11.6652C0.5 11.6119 0.521165 11.5608 0.55884 11.5231C0.596515 11.4854 0.647613 11.4643 0.700893 11.4643H15.2991C15.3524 11.4643 15.4035 11.4854 15.4412 11.5231C15.4788 11.5608 15.5 11.6119 15.5 11.6652V12.4687C15.5 12.522 15.4788 12.5731 15.4412 12.6108C15.4035 12.6485 15.3524 12.6696 15.2991 12.6696Z" fill="#A78148"/>
</svg>
