<svg width="14" height="13" viewBox="0 0 14 13" fill="none" xmlns="http://www.w3.org/2000/svg">
<path d="M13.9297 5.65625L7.76562 0.6875C7.64844 0.59375 7.41406 0.5 7.25 0.5C7.0625 0.5 6.82812 0.59375 6.71094 0.6875L0.546875 5.65625C0.523438 5.70312 0.5 5.75 0.5 5.79688C0.5 5.82031 0.5 5.86719 0.523438 5.89062L0.851562 6.28906C0.875 6.33594 0.945312 6.35938 0.992188 6.35938C1.01562 6.35938 1.0625 6.33594 1.08594 6.3125L2 5.58594V12.125C2 12.3359 2.16406 12.5 2.375 12.5H12.125C12.3125 12.5 12.5 12.3359 12.5 12.125V5.58594L13.3906 6.33594C13.4141 6.33594 13.4609 6.35938 13.5078 6.35938C13.5312 6.35938 13.6016 6.33594 13.625 6.3125L13.9531 5.89062C13.9766 5.86719 13.9766 5.82031 13.9766 5.79688C13.9766 5.75 13.9531 5.70312 13.9297 5.65625ZM6.125 11.75V8H8.375V11.75H6.125ZM11.75 11.75H9.125V7.625C9.125 7.4375 8.9375 7.25 8.75 7.25H5.75C5.53906 7.25 5.375 7.4375 5.375 7.625V11.75H2.75V4.97656L7.13281 1.4375C7.15625 1.41406 7.20312 1.41406 7.22656 1.41406C7.27344 1.41406 7.32031 1.41406 7.34375 1.4375L11.75 4.97656V11.75Z" fill="#A78148"/>
</svg>
