<svg width="16" height="16" viewBox="0 0 16 16" fill="none" xmlns="http://www.w3.org/2000/svg">
<path d="M8.00167 4.15419C5.8734 4.15419 4.15672 5.87125 4.15672 8C4.15672 10.1288 5.8734 11.8458 8.00167 11.8458C10.13 11.8458 11.8466 10.1288 11.8466 8C11.8466 5.87125 10.13 4.15419 8.00167 4.15419ZM8.00167 10.5003C6.62633 10.5003 5.50195 9.379 5.50195 8C5.50195 6.621 6.62298 5.49972 8.00167 5.49972C9.38037 5.49972 10.5014 6.621 10.5014 8C10.5014 9.379 9.37702 10.5003 8.00167 10.5003ZM12.9007 3.99688C12.9007 4.49559 12.4992 4.8939 12.0039 4.8939C11.5053 4.8939 11.1071 4.49225 11.1071 3.99688C11.1071 3.50151 11.5086 3.09985 12.0039 3.09985C12.4992 3.09985 12.9007 3.50151 12.9007 3.99688ZM15.4473 4.90729C15.3904 3.70568 15.116 2.6413 14.2359 1.76436C13.3592 0.887426 12.295 0.612964 11.0937 0.552717C9.85555 0.482428 6.14445 0.482428 4.9063 0.552717C3.70831 0.609617 2.64417 0.884079 1.76408 1.76102C0.883993 2.63796 0.612939 3.70233 0.552705 4.90394C0.482432 6.14236 0.482432 9.85429 0.552705 11.0927C0.609593 12.2943 0.883993 13.3587 1.76408 14.2356C2.64417 15.1126 3.70496 15.387 4.9063 15.4473C6.14445 15.5176 9.85555 15.5176 11.0937 15.4473C12.295 15.3904 13.3592 15.1159 14.2359 14.2356C15.1127 13.3587 15.3871 12.2943 15.4473 11.0927C15.5176 9.85429 15.5176 6.14571 15.4473 4.90729ZM13.8477 12.4215C13.5867 13.0775 13.0814 13.583 12.4222 13.8474C11.435 14.239 9.09258 14.1486 8.00167 14.1486C6.91076 14.1486 4.56497 14.2356 3.58115 13.8474C2.92526 13.5863 2.41997 13.0809 2.15561 12.4215C1.76408 11.4341 1.85443 9.09115 1.85443 8C1.85443 6.90885 1.76743 4.56253 2.15561 3.57849C2.41662 2.92246 2.92192 2.41705 3.58115 2.15263C4.56832 1.76102 6.91076 1.85139 8.00167 1.85139C9.09258 1.85139 11.4384 1.76436 12.4222 2.15263C13.0781 2.4137 13.5834 2.91911 13.8477 3.57849C14.2393 4.56588 14.1489 6.90885 14.1489 8C14.1489 9.09115 14.2393 11.4375 13.8477 12.4215Z" fill="#212932"/>
</svg>
