<svg xmlns="http://www.w3.org/2000/svg" fill="none" viewBox="0 0 77 96" height="96" width="77">
<path fill="#CFA668" d="M61.872 62.6309C60.6971 62.9761 58.9723 63.0152 57.1229 62.748C55.1383 62.4614 53.1137 61.8573 51.124 60.9672C54.6724 60.4531 57.425 60.6115 59.7796 61.4423C60.3372 61.639 61.2534 62.1649 61.872 62.6309ZM42.0743 59.3902C41.93 59.4292 41.7877 59.4662 41.6462 59.5053C40.6914 59.764 39.7624 60.0165 38.8671 60.2412L37.66 60.546C35.2319 61.1577 32.749 61.7827 30.297 62.527C31.2288 60.2894 32.0946 58.0272 32.9424 55.8153C33.5701 54.1782 34.2111 52.5055 34.8739 50.8544C35.2102 51.4076 35.5612 51.9607 35.9262 52.5153C37.59 55.0383 39.6813 57.3707 42.0743 59.3902ZM35.8975 34.1583C36.0551 36.9192 35.4568 39.5754 34.579 42.1234C33.498 38.9725 32.9943 35.4933 34.3457 32.6844C34.6925 31.9645 34.9762 31.5795 35.1605 31.3786C35.4449 31.8159 35.819 32.794 35.8975 34.1583ZM23.2206 69.1329C22.6133 70.2148 21.9932 71.2276 21.3578 72.184C19.8243 74.4852 17.3163 76.9489 16.0278 76.9489C15.901 76.9489 15.7476 76.9287 15.5234 76.6929C15.3791 76.5423 15.356 76.4342 15.363 76.287C15.4064 75.4409 16.5322 73.9341 18.1631 72.537C19.6434 71.2696 21.3165 70.1429 23.2206 69.1329ZM65.9745 62.7507C65.7776 59.9326 61.0131 58.1246 60.9661 58.1078C59.1242 57.4577 57.1235 57.1417 54.8496 57.1417C52.4151 57.1417 49.7908 57.4926 46.4203 58.2766C43.4212 56.1597 40.8305 53.5097 38.8949 50.5758C38.0402 49.2798 37.2716 47.9858 36.6019 46.7219C38.2371 42.8289 39.7096 38.643 39.442 33.9549C39.2263 30.1958 37.5239 27.6708 35.2086 27.6708C33.6204 27.6708 32.253 28.842 31.1411 31.1551C29.1577 35.2768 29.679 40.5509 32.69 46.844C31.6055 49.3803 30.5981 52.0094 29.6228 54.5547C28.4095 57.7195 27.159 60.9846 25.7501 64.0907C21.7982 65.6476 18.5517 67.5359 15.8461 69.8537C14.0737 71.3694 11.9369 73.6867 11.815 76.1058C11.7554 77.2449 12.1477 78.2897 12.945 79.1268C13.792 80.0155 14.8561 80.4836 16.0261 80.485C19.8905 80.485 23.6097 75.1984 24.3153 74.138C25.7353 72.007 27.0643 69.6299 28.3667 66.8877C31.6467 65.7075 35.1425 64.8265 38.5305 63.9749L39.7439 63.668C40.656 63.4371 41.6039 63.1818 42.5763 62.9167C43.6054 62.6398 44.664 62.3524 45.7401 62.0797C49.219 64.2825 52.9602 65.7195 56.6088 66.2468C59.6822 66.6918 62.4115 66.4337 64.2589 65.4746C65.9213 64.6125 66.013 63.2823 65.9745 62.7507ZM73.4587 86.9827C73.4587 92.1437 68.8902 92.4619 67.9684 92.4723H9.02666C3.86206 92.4723 3.55108 87.8923 3.54121 86.9827L3.54051 9.0154C3.54051 3.84937 8.11739 3.53616 9.02596 3.5258H48.8423L48.8633 3.54673V19.0175C48.8633 22.1223 50.7486 28.0005 57.888 28.0005H73.3256L73.458 28.1323L73.4587 86.9827ZM69.7989 24.4742H57.8908C52.7276 24.4742 52.4152 19.9192 52.4082 19.018V7.08738L69.7989 24.4742ZM77 86.9827V26.6778L52.4082 2.09045V1.97606H52.2905L50.3156 0H9.02679C5.9044 0 0 1.88481 0 9.01708V86.9844C0 90.1024 1.88725 96 9.02679 96H67.9739C71.0956 95.9993 77 94.1142 77 86.9827Z"></path>
</svg>