<svg width="12" height="12" viewBox="0 0 12 12" fill="none" xmlns="http://www.w3.org/2000/svg">
<path d="M6 7.96875C5.625 7.96875 5.34375 8.27344 5.34375 8.625C5.34375 9 5.625 9.28125 6 9.28125C6.35156 9.28125 6.65625 9 6.65625 8.625C6.65625 8.27344 6.35156 7.96875 6 7.96875ZM6.16406 7.40625C6.32812 7.40625 6.44531 7.28906 6.44531 7.125C6.44531 6.11719 8.27344 6.1875 8.27344 4.61719C8.27344 3.42188 7.19531 2.71875 5.97656 2.71875C4.92188 2.71875 4.33594 3.14062 3.84375 3.77344C3.75 3.91406 3.77344 4.07812 3.91406 4.17188L4.21875 4.40625C4.33594 4.47656 4.5 4.45312 4.59375 4.33594C4.94531 3.89062 5.29688 3.65625 5.97656 3.65625C6.91406 3.65625 7.33594 4.14844 7.33594 4.61719C7.33594 5.625 5.50781 5.48438 5.50781 7.125C5.50781 7.28906 5.64844 7.40625 5.78906 7.40625H6.16406ZM6 0.9375C8.76562 0.9375 11.0625 3.21094 11.0625 6C11.0625 8.8125 8.78906 11.0625 6 11.0625C3.1875 11.0625 0.9375 8.8125 0.9375 6C0.9375 3.21094 3.1875 0.9375 6 0.9375ZM6 0.1875C2.78906 0.1875 0.1875 2.8125 0.1875 6C0.1875 9.21094 2.78906 11.8125 6 11.8125C9.1875 11.8125 11.8125 9.21094 11.8125 6C11.8125 2.8125 9.1875 0.1875 6 0.1875Z" fill="#A78148"/>
</svg>
