<svg width="18" height="12" viewBox="0 0 18 12" fill="none" xmlns="http://www.w3.org/2000/svg">
<path d="M11.8251 1.18716L11.7806 1.23159C11.7807 1.23164 11.7807 1.23169 11.7808 1.23174L11.7806 1.23159L11.8251 1.18716ZM11.8251 1.18716L11.8695 1.23159L11.8694 1.23173C11.8694 1.23168 11.8695 1.23164 11.8695 1.23159L11.8251 1.18716ZM13.7479 5.54154H14.9904L14.0943 4.68091L11.1999 1.90126L11.8251 1.27603L16.5379 5.98873L11.8251 10.7015L11.1999 10.0762L14.0943 7.29659L14.9904 6.43596H13.7479H1.25V5.54154H13.7479ZM11.1536 10.1207L11.1537 10.1206C11.1537 10.1206 11.1536 10.1207 11.1536 10.1207L11.1536 10.1207Z" fill="#00A84F" stroke="#00A84F"/>
</svg>
