<svg width="16" height="16" viewBox="0 0 16 16" fill="none" xmlns="http://www.w3.org/2000/svg">
<path d="M15.3828 14.2402L11.8379 10.6953C11.75 10.6367 11.6621 10.5781 11.5742 10.5781H11.1934C12.1016 9.52344 12.6875 8.11719 12.6875 6.59375C12.6875 3.25391 9.93359 0.5 6.59375 0.5C3.22461 0.5 0.5 3.25391 0.5 6.59375C0.5 9.96289 3.22461 12.6875 6.59375 12.6875C8.11719 12.6875 9.49414 12.1309 10.5781 11.2227V11.6035C10.5781 11.6914 10.6074 11.7793 10.666 11.8672L14.2109 15.4121C14.3574 15.5586 14.5918 15.5586 14.709 15.4121L15.3828 14.7383C15.5293 14.6211 15.5293 14.3867 15.3828 14.2402ZM6.59375 11.2813C3.98633 11.2813 1.90625 9.20117 1.90625 6.59375C1.90625 4.01563 3.98633 1.90625 6.59375 1.90625C9.17188 1.90625 11.2813 4.01563 11.2813 6.59375C11.2813 9.20117 9.17188 11.2813 6.59375 11.2813Z" fill="#212932"/>
</svg>
