<svg width="54" height="54" viewBox="0 0 54 54" fill="none" xmlns="http://www.w3.org/2000/svg">
<path d="M27 0.84375C12.5508 0.84375 0.84375 12.5508 0.84375 27C0.84375 41.4492 12.5508 53.1562 27 53.1562C41.4492 53.1562 53.1562 41.4492 53.1562 27C53.1562 12.5508 41.4492 0.84375 27 0.84375ZM39.825 33.866C40.3207 34.3617 40.3207 35.1633 39.825 35.659L35.6484 39.825C35.1527 40.3207 34.3512 40.3207 33.8555 39.825L27 32.9062L20.134 39.825C19.6383 40.3207 18.8367 40.3207 18.341 39.825L14.175 35.6484C13.6793 35.1527 13.6793 34.3512 14.175 33.8555L21.0938 27L14.175 20.134C13.6793 19.6383 13.6793 18.8367 14.175 18.341L18.3516 14.1645C18.8473 13.6688 19.6488 13.6688 20.1445 14.1645L27 21.0938L33.866 14.175C34.3617 13.6793 35.1633 13.6793 35.659 14.175L39.8355 18.3516C40.3313 18.8473 40.3313 19.6488 39.8355 20.1445L32.9062 27L39.825 33.866Z" fill="#F35252"/>
</svg>
