<svg width="16" height="16" viewBox="0 0 16 16" fill="none" xmlns="http://www.w3.org/2000/svg">
<mask id="path-1-inside-1_1203_230" fill="white">
<path d="M13.3342 7.33566H12.8289C11.6405 7.33566 11.0452 5.89896 11.8856 5.05857L12.2427 4.70098C12.3605 4.57454 12.4245 4.40733 12.4215 4.23458C12.4184 4.06183 12.3484 3.89702 12.2262 3.77487C12.104 3.65271 11.9392 3.58274 11.7664 3.5797C11.5937 3.57666 11.4265 3.64079 11.3001 3.75858L10.9427 4.11546C10.8211 4.2399 10.6759 4.33879 10.5155 4.40636C10.3552 4.47392 10.183 4.5088 10.009 4.50893C9.32335 4.50893 8.66562 3.97665 8.66562 3.17236V2.66681C8.66562 2.48988 8.59533 2.3202 8.47023 2.19509C8.34512 2.06998 8.17544 1.99969 7.99851 1.99969C7.82158 1.99969 7.65189 2.06998 7.52679 2.19509C7.40168 2.3202 7.33139 2.48988 7.33139 2.66681V3.17236C7.33139 3.97641 6.67366 4.50893 5.98802 4.50893C5.81404 4.50888 5.64182 4.47407 5.48148 4.40654C5.32113 4.33901 5.1759 4.24013 5.0543 4.1157L4.69694 3.75858C4.57053 3.64079 4.40335 3.57666 4.23059 3.5797C4.05784 3.58274 3.89301 3.65271 3.77083 3.77487C3.64864 3.89702 3.57863 4.06183 3.57555 4.23458C3.57247 4.40733 3.63655 4.57454 3.75431 4.70098L4.1119 5.05857C4.9523 5.89896 4.35694 7.33566 3.16856 7.33566H2.66277C2.57413 7.334 2.48604 7.35002 2.40367 7.3828C2.32129 7.41557 2.24627 7.46443 2.18299 7.52654C2.11971 7.58864 2.06945 7.66273 2.03514 7.74448C2.00083 7.82623 1.98315 7.914 1.98315 8.00266C1.98315 8.09132 2.00083 8.17909 2.03514 8.26084C2.06945 8.34259 2.11971 8.41668 2.18299 8.47878C2.24627 8.54088 2.32129 8.58974 2.40367 8.62252C2.48604 8.65529 2.57413 8.67132 2.66277 8.66965H3.16809C4.35647 8.66965 4.95183 10.1066 4.11143 10.947L3.75431 11.3043C3.63771 11.431 3.57459 11.5978 3.57815 11.7699C3.58171 11.9421 3.65167 12.1061 3.7734 12.2279C3.89513 12.3496 4.05921 12.4196 4.23133 12.4231C4.40345 12.4267 4.57028 12.3636 4.69694 12.247L5.0543 11.8894C5.17591 11.7651 5.32113 11.6663 5.48142 11.5988C5.64172 11.5314 5.81388 11.4966 5.98779 11.4966C6.67366 11.4966 7.33139 12.0289 7.33139 12.8332V13.3383C7.33139 13.5152 7.40168 13.6849 7.52679 13.81C7.65189 13.9351 7.82158 14.0054 7.99851 14.0054C8.17544 14.0054 8.34512 13.9351 8.47023 13.81C8.59533 13.6849 8.66562 13.5152 8.66562 13.3383V12.8332C8.66562 12.0291 9.32335 11.4966 10.0092 11.4966C10.1832 11.4967 10.3553 11.5315 10.5156 11.5991C10.6759 11.6666 10.8211 11.7654 10.9427 11.8899L11.3001 12.247C11.4267 12.3636 11.5936 12.4267 11.7657 12.4231C11.9378 12.4196 12.1019 12.3496 12.2236 12.2279C12.3453 12.1061 12.4153 11.9421 12.4189 11.7699C12.4224 11.5978 12.3593 11.431 12.2427 11.3043L11.8851 10.947C11.0447 10.1066 11.6401 8.66965 12.8285 8.66965H13.3335C13.4222 8.67132 13.5103 8.65529 13.5926 8.62252C13.675 8.58974 13.75 8.54088 13.8133 8.47878C13.8766 8.41668 13.9269 8.34259 13.9612 8.26084C13.9955 8.17909 14.0132 8.09132 14.0132 8.00266C14.0132 7.914 13.9955 7.82623 13.9612 7.74448C13.9269 7.66273 13.8766 7.58864 13.8133 7.52654C13.75 7.46443 13.675 7.41557 13.5926 7.3828C13.5103 7.35002 13.4222 7.334 13.3335 7.33566H13.3342ZM10.9033 9.20616C10.6538 9.80902 10.6937 10.456 10.9934 10.9986C10.6916 10.8327 10.3528 10.746 10.0085 10.7465C9.55618 10.7467 9.11604 10.8932 8.75378 11.1641C8.39153 11.435 8.12659 11.8157 7.99851 12.2496C7.87043 11.8156 7.6054 11.4347 7.243 11.1637C6.8806 10.8928 6.44028 10.7463 5.98779 10.7463C5.64349 10.7458 5.30467 10.8325 5.00295 10.9983C5.30262 10.4557 5.34248 9.80879 5.09299 9.20592C4.84349 8.60306 4.35834 8.17418 3.76369 8.00254C4.35834 7.83043 4.84349 7.40155 5.09299 6.79916C5.34248 6.19676 5.30262 5.54935 5.00295 5.00674C5.3047 5.17253 5.6435 5.25924 5.98779 5.25882C6.44025 5.25876 6.88055 5.11236 7.24294 4.84146C7.60534 4.57056 7.87039 4.1897 7.99851 3.75576C8.12653 4.18975 8.3915 4.57068 8.75386 4.84167C9.11622 5.11266 9.55651 5.25915 10.009 5.25929C10.3533 5.25971 10.6921 5.173 10.9938 5.00721C10.6942 5.54981 10.6543 6.19676 10.9038 6.79963C11.1533 7.40249 11.6384 7.83137 12.2331 8.00301C11.638 8.17465 11.1528 8.60376 10.9033 9.20616ZM7.24815 6.12688C7.02554 6.12688 6.80793 6.1929 6.62284 6.31657C6.43774 6.44025 6.29348 6.61603 6.20829 6.8217C6.1231 7.02736 6.10081 7.25367 6.14424 7.472C6.18767 7.69033 6.29487 7.89088 6.45228 8.04829C6.60969 8.2057 6.81024 8.3129 7.02857 8.35633C7.2469 8.39975 7.47321 8.37746 7.67887 8.29228C7.88454 8.20709 8.06032 8.06282 8.184 7.87773C8.30767 7.69264 8.37368 7.47503 8.37368 7.25242C8.37368 6.95391 8.2551 6.66762 8.04402 6.45655C7.83294 6.24547 7.54666 6.12688 7.24815 6.12688ZM7.24815 7.6276C7.17395 7.6276 7.10141 7.60559 7.03971 7.56437C6.97801 7.52314 6.92993 7.46455 6.90153 7.39599C6.87313 7.32744 6.8657 7.252 6.88018 7.17922C6.89466 7.10645 6.93039 7.0396 6.98286 6.98713C7.03533 6.93466 7.10218 6.89893 7.17496 6.88445C7.24773 6.86997 7.32317 6.8774 7.39172 6.9058C7.46028 6.9342 7.51887 6.98228 7.5601 7.04398C7.60132 7.10568 7.62333 7.17822 7.62333 7.25242C7.62333 7.35192 7.5838 7.44735 7.51344 7.51771C7.44308 7.58807 7.34765 7.6276 7.24815 7.6276ZM9.12404 8.75313C9.04984 8.75313 8.9773 8.77513 8.9156 8.81636C8.8539 8.85758 8.80582 8.91618 8.77742 8.98473C8.74902 9.05329 8.74159 9.12872 8.75607 9.2015C8.77055 9.27428 8.80628 9.34113 8.85875 9.3936C8.91122 9.44607 8.97807 9.4818 9.05085 9.49628C9.12362 9.51075 9.19906 9.50332 9.26761 9.47493C9.33617 9.44653 9.39476 9.39844 9.43599 9.33675C9.47721 9.27505 9.49922 9.20251 9.49922 9.12831C9.49922 9.0288 9.45969 8.93338 9.38933 8.86302C9.31897 8.79266 9.22354 8.75313 9.12404 8.75313Z"/>
</mask>
<path d="M13.3342 7.33566H12.8289C11.6405 7.33566 11.0452 5.89896 11.8856 5.05857L12.2427 4.70098C12.3605 4.57454 12.4245 4.40733 12.4215 4.23458C12.4184 4.06183 12.3484 3.89702 12.2262 3.77487C12.104 3.65271 11.9392 3.58274 11.7664 3.5797C11.5937 3.57666 11.4265 3.64079 11.3001 3.75858L10.9427 4.11546C10.8211 4.2399 10.6759 4.33879 10.5155 4.40636C10.3552 4.47392 10.183 4.5088 10.009 4.50893C9.32335 4.50893 8.66562 3.97665 8.66562 3.17236V2.66681C8.66562 2.48988 8.59533 2.3202 8.47023 2.19509C8.34512 2.06998 8.17544 1.99969 7.99851 1.99969C7.82158 1.99969 7.65189 2.06998 7.52679 2.19509C7.40168 2.3202 7.33139 2.48988 7.33139 2.66681V3.17236C7.33139 3.97641 6.67366 4.50893 5.98802 4.50893C5.81404 4.50888 5.64182 4.47407 5.48148 4.40654C5.32113 4.33901 5.1759 4.24013 5.0543 4.1157L4.69694 3.75858C4.57053 3.64079 4.40335 3.57666 4.23059 3.5797C4.05784 3.58274 3.89301 3.65271 3.77083 3.77487C3.64864 3.89702 3.57863 4.06183 3.57555 4.23458C3.57247 4.40733 3.63655 4.57454 3.75431 4.70098L4.1119 5.05857C4.9523 5.89896 4.35694 7.33566 3.16856 7.33566H2.66277C2.57413 7.334 2.48604 7.35002 2.40367 7.3828C2.32129 7.41557 2.24627 7.46443 2.18299 7.52654C2.11971 7.58864 2.06945 7.66273 2.03514 7.74448C2.00083 7.82623 1.98315 7.914 1.98315 8.00266C1.98315 8.09132 2.00083 8.17909 2.03514 8.26084C2.06945 8.34259 2.11971 8.41668 2.18299 8.47878C2.24627 8.54088 2.32129 8.58974 2.40367 8.62252C2.48604 8.65529 2.57413 8.67132 2.66277 8.66965H3.16809C4.35647 8.66965 4.95183 10.1066 4.11143 10.947L3.75431 11.3043C3.63771 11.431 3.57459 11.5978 3.57815 11.7699C3.58171 11.9421 3.65167 12.1061 3.7734 12.2279C3.89513 12.3496 4.05921 12.4196 4.23133 12.4231C4.40345 12.4267 4.57028 12.3636 4.69694 12.247L5.0543 11.8894C5.17591 11.7651 5.32113 11.6663 5.48142 11.5988C5.64172 11.5314 5.81388 11.4966 5.98779 11.4966C6.67366 11.4966 7.33139 12.0289 7.33139 12.8332V13.3383C7.33139 13.5152 7.40168 13.6849 7.52679 13.81C7.65189 13.9351 7.82158 14.0054 7.99851 14.0054C8.17544 14.0054 8.34512 13.9351 8.47023 13.81C8.59533 13.6849 8.66562 13.5152 8.66562 13.3383V12.8332C8.66562 12.0291 9.32335 11.4966 10.0092 11.4966C10.1832 11.4967 10.3553 11.5315 10.5156 11.5991C10.6759 11.6666 10.8211 11.7654 10.9427 11.8899L11.3001 12.247C11.4267 12.3636 11.5936 12.4267 11.7657 12.4231C11.9378 12.4196 12.1019 12.3496 12.2236 12.2279C12.3453 12.1061 12.4153 11.9421 12.4189 11.7699C12.4224 11.5978 12.3593 11.431 12.2427 11.3043L11.8851 10.947C11.0447 10.1066 11.6401 8.66965 12.8285 8.66965H13.3335C13.4222 8.67132 13.5103 8.65529 13.5926 8.62252C13.675 8.58974 13.75 8.54088 13.8133 8.47878C13.8766 8.41668 13.9269 8.34259 13.9612 8.26084C13.9955 8.17909 14.0132 8.09132 14.0132 8.00266C14.0132 7.914 13.9955 7.82623 13.9612 7.74448C13.9269 7.66273 13.8766 7.58864 13.8133 7.52654C13.75 7.46443 13.675 7.41557 13.5926 7.3828C13.5103 7.35002 13.4222 7.334 13.3335 7.33566H13.3342ZM10.9033 9.20616C10.6538 9.80902 10.6937 10.456 10.9934 10.9986C10.6916 10.8327 10.3528 10.746 10.0085 10.7465C9.55618 10.7467 9.11604 10.8932 8.75378 11.1641C8.39153 11.435 8.12659 11.8157 7.99851 12.2496C7.87043 11.8156 7.6054 11.4347 7.243 11.1637C6.8806 10.8928 6.44028 10.7463 5.98779 10.7463C5.64349 10.7458 5.30467 10.8325 5.00295 10.9983C5.30262 10.4557 5.34248 9.80879 5.09299 9.20592C4.84349 8.60306 4.35834 8.17418 3.76369 8.00254C4.35834 7.83043 4.84349 7.40155 5.09299 6.79916C5.34248 6.19676 5.30262 5.54935 5.00295 5.00674C5.3047 5.17253 5.6435 5.25924 5.98779 5.25882C6.44025 5.25876 6.88055 5.11236 7.24294 4.84146C7.60534 4.57056 7.87039 4.1897 7.99851 3.75576C8.12653 4.18975 8.3915 4.57068 8.75386 4.84167C9.11622 5.11266 9.55651 5.25915 10.009 5.25929C10.3533 5.25971 10.6921 5.173 10.9938 5.00721C10.6942 5.54981 10.6543 6.19676 10.9038 6.79963C11.1533 7.40249 11.6384 7.83137 12.2331 8.00301C11.638 8.17465 11.1528 8.60376 10.9033 9.20616ZM7.24815 6.12688C7.02554 6.12688 6.80793 6.1929 6.62284 6.31657C6.43774 6.44025 6.29348 6.61603 6.20829 6.8217C6.1231 7.02736 6.10081 7.25367 6.14424 7.472C6.18767 7.69033 6.29487 7.89088 6.45228 8.04829C6.60969 8.2057 6.81024 8.3129 7.02857 8.35633C7.2469 8.39975 7.47321 8.37746 7.67887 8.29228C7.88454 8.20709 8.06032 8.06282 8.184 7.87773C8.30767 7.69264 8.37368 7.47503 8.37368 7.25242C8.37368 6.95391 8.2551 6.66762 8.04402 6.45655C7.83294 6.24547 7.54666 6.12688 7.24815 6.12688ZM7.24815 7.6276C7.17395 7.6276 7.10141 7.60559 7.03971 7.56437C6.97801 7.52314 6.92993 7.46455 6.90153 7.39599C6.87313 7.32744 6.8657 7.252 6.88018 7.17922C6.89466 7.10645 6.93039 7.0396 6.98286 6.98713C7.03533 6.93466 7.10218 6.89893 7.17496 6.88445C7.24773 6.86997 7.32317 6.8774 7.39172 6.9058C7.46028 6.9342 7.51887 6.98228 7.5601 7.04398C7.60132 7.10568 7.62333 7.17822 7.62333 7.25242C7.62333 7.35192 7.5838 7.44735 7.51344 7.51771C7.44308 7.58807 7.34765 7.6276 7.24815 7.6276ZM9.12404 8.75313C9.04984 8.75313 8.9773 8.77513 8.9156 8.81636C8.8539 8.85758 8.80582 8.91618 8.77742 8.98473C8.74902 9.05329 8.74159 9.12872 8.75607 9.2015C8.77055 9.27428 8.80628 9.34113 8.85875 9.3936C8.91122 9.44607 8.97807 9.4818 9.05085 9.49628C9.12362 9.51075 9.19906 9.50332 9.26761 9.47493C9.33617 9.44653 9.39476 9.39844 9.43599 9.33675C9.47721 9.27505 9.49922 9.20251 9.49922 9.12831C9.49922 9.0288 9.45969 8.93338 9.38933 8.86302C9.31897 8.79266 9.22354 8.75313 9.12404 8.75313Z" fill="#00863F" stroke="#00863F" stroke-width="2" mask="url(#path-1-inside-1_1203_230)"/>
</svg>
