<svg width="16" height="16" viewBox="0 0 13 13" fill="none" xmlns="http://www.w3.org/2000/svg">
<mask id="path-1-inside-1_2184_51236" fill="white">
<path fill-rule="evenodd" clip-rule="evenodd" d="M4.06545 2.42853C4.04414 2.43063 4.02322 2.43511 4.0029 2.44198C3.36682 2.63731 2.91639 2.98275 2.67315 3.43269C2.42991 3.88252 2.39914 4.40983 2.50362 4.94542C2.7125 6.0167 3.45368 7.16816 4.39117 8.12699C5.32869 9.0859 6.45913 9.85349 7.5373 10.0771C8.07628 10.1889 8.61307 10.1593 9.07683 9.91645C9.54062 9.67361 9.90965 9.2207 10.1388 8.57324C10.1824 8.44823 10.1344 8.30978 10.0229 8.23856L7.98801 6.96228L7.98353 6.9579C7.97346 6.95123 7.96311 6.94535 7.95225 6.93997C7.92236 6.92065 7.8891 6.907 7.85413 6.89983H7.84517C7.8378 6.89814 7.83033 6.89664 7.82286 6.89545H7.81837C7.77076 6.89266 7.72325 6.90182 7.68012 6.92224C7.66438 6.92971 7.64944 6.93868 7.63549 6.94894C7.62623 6.95441 7.61727 6.96039 7.6087 6.96687C7.60561 6.97125 7.60262 6.97573 7.59973 6.98021C7.58858 6.98988 7.57812 7.00033 7.56856 7.01149L7.12231 7.46222C6.31322 7.05492 5.69116 6.37222 5.13205 5.44965L5.54265 5.04354C5.55052 5.03657 5.55789 5.0291 5.56486 5.02123C5.57113 5.01555 5.57711 5.00958 5.58279 5.0034V4.99902C5.58896 4.99334 5.59494 4.98736 5.60062 4.98109V4.9767C5.60371 4.97232 5.60669 4.96784 5.60948 4.96326C5.61257 4.96037 5.61556 4.95748 5.61845 4.95439C5.62173 4.94712 5.62472 4.93965 5.62741 4.93208V4.9277C5.62891 4.92471 5.6304 4.92182 5.6318 4.91883C5.63498 4.91296 5.63797 4.90708 5.64076 4.901C5.64255 4.89363 5.64405 4.88616 5.64524 4.87869V4.87421C5.64713 4.86544 5.64863 4.85648 5.64972 4.84751V4.84303C5.65002 4.83556 5.65002 4.82819 5.64972 4.82072V4.81634C5.65002 4.80887 5.65002 4.80139 5.64972 4.79402V4.78516C5.64853 4.77769 5.64703 4.77022 5.64524 4.76285V4.75836C5.64076 4.74153 5.63478 4.7251 5.62741 4.70936V4.70487C5.62223 4.69262 5.61626 4.68067 5.60948 4.66922L5.605 4.66035C5.60351 4.65886 5.60211 4.65736 5.60062 4.65587L4.32883 2.56751C4.27873 2.48414 4.18958 2.43195 4.09226 2.42916C4.0834 2.42876 4.07432 2.42814 4.06545 2.42853ZM3.96286 3.05776L5.00255 4.77579L4.56965 5.20421C4.4791 5.29554 4.46078 5.43629 4.52502 5.54776C5.18561 6.69164 5.96824 7.58155 7.06411 8.06454C7.17158 8.11235 7.29739 8.08934 7.38097 8.00657L7.84054 7.54699L9.51844 8.59565C9.33267 9.01379 9.09043 9.26272 8.81343 9.40786C8.49249 9.5759 8.10054 9.60768 7.6532 9.51494C6.75852 9.32937 5.67788 8.62634 4.79725 7.72549C3.91663 6.82474 3.2351 5.72936 3.0614 4.83818C2.97454 4.39263 3.01289 4.00894 3.17744 3.70475C3.31909 3.4428 3.55974 3.21864 3.96286 3.05776Z"/>
</mask>
<path fill-rule="evenodd" clip-rule="evenodd" d="M4.06545 2.42853C4.04414 2.43063 4.02322 2.43511 4.0029 2.44198C3.36682 2.63731 2.91639 2.98275 2.67315 3.43269C2.42991 3.88252 2.39914 4.40983 2.50362 4.94542C2.7125 6.0167 3.45368 7.16816 4.39117 8.12699C5.32869 9.0859 6.45913 9.85349 7.5373 10.0771C8.07628 10.1889 8.61307 10.1593 9.07683 9.91645C9.54062 9.67361 9.90965 9.2207 10.1388 8.57324C10.1824 8.44823 10.1344 8.30978 10.0229 8.23856L7.98801 6.96228L7.98353 6.9579C7.97346 6.95123 7.96311 6.94535 7.95225 6.93997C7.92236 6.92065 7.8891 6.907 7.85413 6.89983H7.84517C7.8378 6.89814 7.83033 6.89664 7.82286 6.89545H7.81837C7.77076 6.89266 7.72325 6.90182 7.68012 6.92224C7.66438 6.92971 7.64944 6.93868 7.63549 6.94894C7.62623 6.95441 7.61727 6.96039 7.6087 6.96687C7.60561 6.97125 7.60262 6.97573 7.59973 6.98021C7.58858 6.98988 7.57812 7.00033 7.56856 7.01149L7.12231 7.46222C6.31322 7.05492 5.69116 6.37222 5.13205 5.44965L5.54265 5.04354C5.55052 5.03657 5.55789 5.0291 5.56486 5.02123C5.57113 5.01555 5.57711 5.00958 5.58279 5.0034V4.99902C5.58896 4.99334 5.59494 4.98736 5.60062 4.98109V4.9767C5.60371 4.97232 5.60669 4.96784 5.60948 4.96326C5.61257 4.96037 5.61556 4.95748 5.61845 4.95439C5.62173 4.94712 5.62472 4.93965 5.62741 4.93208V4.9277C5.62891 4.92471 5.6304 4.92182 5.6318 4.91883C5.63498 4.91296 5.63797 4.90708 5.64076 4.901C5.64255 4.89363 5.64405 4.88616 5.64524 4.87869V4.87421C5.64713 4.86544 5.64863 4.85648 5.64972 4.84751V4.84303C5.65002 4.83556 5.65002 4.82819 5.64972 4.82072V4.81634C5.65002 4.80887 5.65002 4.80139 5.64972 4.79402V4.78516C5.64853 4.77769 5.64703 4.77022 5.64524 4.76285V4.75836C5.64076 4.74153 5.63478 4.7251 5.62741 4.70936V4.70487C5.62223 4.69262 5.61626 4.68067 5.60948 4.66922L5.605 4.66035C5.60351 4.65886 5.60211 4.65736 5.60062 4.65587L4.32883 2.56751C4.27873 2.48414 4.18958 2.43195 4.09226 2.42916C4.0834 2.42876 4.07432 2.42814 4.06545 2.42853ZM3.96286 3.05776L5.00255 4.77579L4.56965 5.20421C4.4791 5.29554 4.46078 5.43629 4.52502 5.54776C5.18561 6.69164 5.96824 7.58155 7.06411 8.06454C7.17158 8.11235 7.29739 8.08934 7.38097 8.00657L7.84054 7.54699L9.51844 8.59565C9.33267 9.01379 9.09043 9.26272 8.81343 9.40786C8.49249 9.5759 8.10054 9.60768 7.6532 9.51494C6.75852 9.32937 5.67788 8.62634 4.79725 7.72549C3.91663 6.82474 3.2351 5.72936 3.0614 4.83818C2.97454 4.39263 3.01289 4.00894 3.17744 3.70475C3.31909 3.4428 3.55974 3.21864 3.96286 3.05776Z" fill="#00863F"/>
<path d="M4.06545 2.42853L2.6737 -28.5402L1.85428 -28.5034L1.03796 -28.4233L4.06545 2.42853ZM4.0029 2.44198L13.1031 32.0762L13.521 31.9479L13.9351 31.8078L4.0029 2.44198ZM2.67315 3.43269L29.9418 18.1778L29.9433 18.1751L2.67315 3.43269ZM2.50362 4.94542L32.9307 -0.987172L32.93 -0.990368L2.50362 4.94542ZM4.39117 8.12699L26.5574 -13.5447L26.5568 -13.5452L4.39117 8.12699ZM7.5373 10.0771L1.24138 40.4311L1.24327 40.4314L7.5373 10.0771ZM9.07683 9.91645L-5.30306 -17.5466L-5.3038 -17.5462L9.07683 9.91645ZM10.1388 8.57324L39.362 18.9178L39.3886 18.8426L39.4148 18.7672L10.1388 8.57324ZM10.0229 8.23856L26.7144 -17.8841L26.6047 -17.9542L26.4943 -18.0234L10.0229 8.23856ZM7.98801 6.96228L-13.6845 29.1276L-11.304 31.4552L-8.48344 33.2243L7.98801 6.96228ZM7.98353 6.9579L29.656 -15.2074L27.5614 -17.2555L25.1203 -18.8749L7.98353 6.9579ZM7.95225 6.93997L-8.88105 32.9715L-7.39439 33.9328L-5.80794 34.7187L7.95225 6.93997ZM7.85413 6.89983L14.0823 -23.4681L11.0003 -24.1002H7.85413V6.89983ZM7.84517 6.89983L0.904315 37.1128L4.33012 37.8998H7.84517V6.89983ZM7.82286 6.89545L12.72 -23.7153L10.2869 -24.1046H7.82286V6.89545ZM7.81837 6.89545L6.00551 37.8424L6.91117 37.8954H7.81837V6.89545ZM7.68012 6.92224L-5.58529 -21.0961L-5.59935 -21.0895L-5.61341 -21.0828L7.68012 6.92224ZM7.63549 6.94894L23.4156 33.632L24.7541 32.8405L26.0066 31.9189L7.63549 6.94894ZM7.6087 6.96687L-11.0821 -17.7648L-14.9451 -14.8454L-17.7338 -10.887L7.6087 6.96687ZM7.59973 6.98021L27.8947 30.4134L31.2518 27.5059L33.6575 23.7729L7.59973 6.98021ZM7.56856 7.01149L29.5983 28.8218L30.3812 28.0311L31.1054 27.1862L7.56856 7.01149ZM7.12231 7.46222L-6.81665 35.1517L13.3037 45.2803L29.152 29.2726L7.12231 7.46222ZM5.13205 5.44965L-16.6675 -16.5908L-34.0527 0.60437L-21.3795 21.5163L5.13205 5.44965ZM5.54265 5.04354L-15.0164 -18.1583L-15.6526 -17.5946L-16.2569 -16.9969L5.54265 5.04354ZM5.56486 5.02123L-15.2338 -17.966L-16.5024 -16.8182L-17.637 -15.5378L5.56486 5.02123ZM5.58279 5.0034L28.4044 25.9837L36.5828 17.0876V5.0034H5.58279ZM5.58279 4.99902L-15.3981 -17.8221L-25.4172 -8.6109V4.99902H5.58279ZM5.60062 4.98109L28.5879 25.7798L36.6006 16.9239V4.98109H5.60062ZM5.60062 4.9767L-19.7418 -12.8771L-25.3994 -4.8466V4.9767H5.60062ZM5.60948 4.96326L-15.5686 -17.6749L-18.6652 -14.7781L-20.87 -11.1561L5.60948 4.96326ZM5.61845 4.95439L28.2575 26.1316L31.7564 22.3912L33.8662 17.7241L5.61845 4.95439ZM5.62741 4.93208L34.8388 15.3098L36.6274 10.2751V4.93208H5.62741ZM5.62741 4.9277L-22.0999 -8.93574L-25.3726 -2.3903V4.9277H5.62741ZM5.6318 4.91883L-21.6182 -9.86076L-22.0642 -9.03852L-22.4598 -8.19088L5.6318 4.91883ZM5.64076 4.901L33.8147 17.8328L35.058 15.124L35.7625 12.2279L5.64076 4.901ZM5.64524 4.87869L36.256 9.77587L36.6452 7.34275V4.87869H5.64524ZM5.64524 4.87421L-24.6565 -1.66824L-25.3548 1.56572V4.87421H5.64524ZM5.64972 4.84751L36.4208 8.60823L36.6497 6.73484V4.84751H5.64972ZM5.64972 4.84303L-25.3255 3.604L-25.3503 4.22327V4.84303H5.64972ZM5.64972 4.82072H-25.3503V5.44048L-25.3255 6.05975L5.64972 4.82072ZM5.64972 4.81634L-25.3255 3.57731L-25.3503 4.19657V4.81634H5.64972ZM5.64972 4.79402H-25.3503V5.42216L-25.3248 6.04979L5.64972 4.79402ZM5.64972 4.78516H36.6497V2.32084L36.2604 -0.112527L5.64972 4.78516ZM5.64524 4.76285H-25.3548V8.47884L-24.4765 12.0896L5.64524 4.76285ZM5.64524 4.75836H36.6452V0.701867L35.6015 -3.21805L5.64524 4.75836ZM5.62741 4.70936H-25.3726V11.609L-22.4462 17.8574L5.62741 4.70936ZM5.62741 4.70487H36.6274V-1.57858L34.1807 -7.36611L5.62741 4.70487ZM5.60948 4.66922L-22.0551 18.6574L-21.5942 19.5691L-21.0742 20.4484L5.60948 4.66922ZM5.605 4.66035L33.2696 -9.32783L31.0319 -13.7534L27.5253 -17.26L5.605 4.66035ZM5.60062 4.65587L-20.8761 20.7799L-18.945 23.9509L-16.3197 26.5762L5.60062 4.65587ZM4.32883 2.56751L-22.2423 18.5354L-22.1953 18.6136L-22.1479 18.6915L4.32883 2.56751ZM4.09226 2.42916L2.70043 33.3979L2.95213 33.4092L3.20399 33.4164L4.09226 2.42916ZM3.96286 3.05776L30.4845 -12.9922L16.8792 -35.4742L-7.52732 -25.7342L3.96286 3.05776ZM5.00255 4.77579L26.8084 26.81L44.1723 9.62606L31.5242 -11.2742L5.00255 4.77579ZM4.56965 5.20421L-17.2362 -16.83L-17.3417 -16.7255L-17.4463 -16.62L4.56965 5.20421ZM4.52502 5.54776L-22.3333 21.0278L-22.3267 21.0393L-22.32 21.0507L4.52502 5.54776ZM7.06411 8.06454L19.6643 -20.2592L19.6154 -20.281L19.5665 -20.3025L7.06411 8.06454ZM7.38097 8.00657L29.195 30.0326L29.2483 29.9798L29.3013 29.9268L7.38097 8.00657ZM7.84054 7.54699L24.2703 -18.7411L3.35796 -31.8111L-14.0798 -14.3733L7.84054 7.54699ZM9.51844 8.59565L37.8484 21.1819L48.7797 -3.42296L25.9482 -17.6924L9.51844 8.59565ZM8.81343 9.40786L23.1927 36.8712L23.2013 36.8667L8.81343 9.40786ZM7.6532 9.51494L1.35739 39.8689L1.36062 39.8696L7.6532 9.51494ZM4.79725 7.72549L26.9649 -13.9446L26.9637 -13.9459L4.79725 7.72549ZM3.0614 4.83818L33.4888 -1.0925L33.4886 -1.09333L3.0614 4.83818ZM3.17744 3.70475L30.4436 18.4546L30.4464 18.4493L3.17744 3.70475ZM1.03796 -28.4233C-1.31773 -28.1921 -3.65608 -27.6927 -5.9293 -26.9238L13.9351 31.8078C11.7025 32.5629 9.40601 33.0534 7.09295 33.2803L1.03796 -28.4233ZM-5.09728 -27.1922C-11.5915 -25.198 -19.626 -20.505 -24.597 -11.3097L29.9433 18.1751C25.4588 26.4705 18.3251 30.4726 13.1031 32.0762L-5.09728 -27.1922ZM-24.5955 -11.3124C-29.2919 -2.6272 -28.9184 5.77802 -27.9228 10.8812L32.93 -0.990368C33.7166 3.04164 34.1518 10.3922 29.9418 18.1778L-24.5955 -11.3124ZM-27.9234 10.878C-26.0979 20.2404 -20.8821 26.6208 -17.7744 29.7992L26.5568 -13.5452C27.5071 -12.5733 28.6154 -11.2525 29.6781 -9.50085C30.6788 -7.85143 32.1535 -4.97317 32.9307 -0.987172L-27.9234 10.878ZM-17.775 29.7986C-14.7183 32.9251 -8.34477 38.4427 1.24138 40.4311L13.8332 -20.2768C17.917 -19.4298 20.8535 -17.8568 22.5383 -16.7861C24.3169 -15.6558 25.627 -14.4962 26.5574 -13.5447L-17.775 29.7986ZM1.24327 40.4314C6.61997 41.5463 14.9168 41.8513 23.4575 37.3791L-5.3038 -17.5462C2.3093 -21.5328 9.5326 -21.1686 13.8313 -20.2772L1.24327 40.4314ZM23.4567 37.3795C32.3997 32.6968 37.1709 25.1075 39.362 18.9178L-19.0843 -1.77127C-17.3516 -6.66614 -13.3185 -13.3496 -5.30306 -17.5466L23.4567 37.3795ZM39.4148 18.7672C44.1798 5.08282 38.9243 -10.0824 26.7144 -17.8841L-6.66861 34.3612C-18.6556 26.7019 -23.815 11.8136 -19.1371 -1.62077L39.4148 18.7672ZM26.4943 -18.0234L24.4595 -19.2997L-8.48344 33.2243L-6.44855 34.5005L26.4943 -18.0234ZM29.6605 -15.2031L29.656 -15.2074L-13.689 29.1232L-13.6845 29.1276L29.6605 -15.2031ZM25.1203 -18.8749C23.9117 -19.6766 22.758 -20.3208 21.7124 -20.8387L-5.80794 34.7187C-6.83178 34.2115 -7.96472 33.5791 -9.1532 32.7907L25.1203 -18.8749ZM24.7855 -19.0916C21.5358 -21.193 17.9085 -22.6834 14.0823 -23.4681L1.62596 37.2677C-2.13034 36.4974 -5.69106 35.0343 -8.88105 32.9715L24.7855 -19.0916ZM7.85413 -24.1002H7.84517V37.8998H7.85413V-24.1002ZM14.786 -23.3132C14.2119 -23.4451 13.5159 -23.588 12.72 -23.7153L2.92568 37.5062C2.14475 37.3813 1.4637 37.2413 0.904315 37.1128L14.786 -23.3132ZM7.82286 -24.1046H7.81837V37.8954H7.82286V-24.1046ZM9.63124 -24.0515C4.41864 -24.3569 -0.816763 -23.3538 -5.58529 -21.0961L20.9455 34.9406C16.2633 37.1574 11.1229 38.1422 6.00551 37.8424L9.63124 -24.0515ZM-5.61341 -21.0828C-7.4409 -20.2153 -9.15344 -19.1851 -10.7357 -18.0211L26.0066 31.9189C24.4523 33.0625 22.7697 34.0747 20.9736 34.9273L-5.61341 -21.0828ZM-8.14461 -19.7342C-9.11294 -19.1615 -10.0981 -18.5084 -11.0821 -17.7648L26.2995 31.6985C25.3327 32.4292 24.3654 33.0703 23.4156 33.632L-8.14461 -19.7342ZM-17.7338 -10.887C-18.0387 -10.4541 -18.2837 -10.0829 -18.458 -9.81248L33.6575 23.7729C33.489 24.0344 33.25 24.3966 32.9512 24.8207L-17.7338 -10.887ZM-12.6953 -16.453C-13.8222 -15.4769 -14.9231 -14.3826 -15.9682 -13.1632L31.1054 27.1862C30.0793 28.3832 28.9994 29.4566 27.8947 30.4134L-12.6953 -16.453ZM-14.4612 -14.7989L-14.9074 -14.3481L29.152 29.2726L29.5983 28.8218L-14.4612 -14.7989ZM21.0613 -20.2272C27.3563 -17.0583 30.525 -12.4628 31.6436 -10.617L-21.3795 21.5163C-19.1427 25.2072 -14.7299 31.1681 -6.81665 35.1517L21.0613 -20.2272ZM26.9316 27.4901L27.3422 27.084L-16.2569 -16.9969L-16.6675 -16.5908L26.9316 27.4901ZM26.1017 28.2454C27.144 27.3218 28.0275 26.4145 28.7667 25.5803L-17.637 -15.5378C-16.9117 -16.3563 -16.043 -17.2487 -15.0164 -18.1583L26.1017 28.2454ZM26.3635 28.0085C27.1315 27.3136 27.8097 26.6306 28.4044 25.9837L-17.2388 -15.9769C-16.6555 -16.6114 -15.9893 -17.2825 -15.2338 -17.966L26.3635 28.0085ZM36.5828 5.0034V4.99902H-25.4172V5.0034H36.5828ZM26.5636 27.8201C27.2104 27.2255 27.8933 26.5475 28.5879 25.7798L-17.3867 -15.8176C-16.7034 -16.5728 -16.0325 -17.2389 -15.3981 -17.8221L26.5636 27.8201ZM36.6006 4.98109V4.9767H-25.3994V4.98109H36.6006ZM30.9431 22.8306C31.2454 22.4015 31.6471 21.8085 32.089 21.0826L-20.87 -11.1561C-20.4337 -11.8729 -20.0379 -12.4568 -19.7418 -12.8771L30.9431 22.8306ZM26.7876 27.6015C27.0097 27.3937 27.5775 26.8586 28.2575 26.1316L-17.0206 -16.2228C-16.3463 -16.9436 -15.7845 -17.473 -15.5686 -17.6749L26.7876 27.6015ZM33.8662 17.7241C34.2457 16.8845 34.5667 16.0757 34.8388 15.3098L-23.584 -5.44559C-23.3172 -6.19641 -23.0023 -6.99026 -22.6293 -7.81533L33.8662 17.7241ZM36.6274 4.93208V4.9277H-25.3726V4.93208H36.6274ZM33.3547 18.7911C33.3396 18.8215 33.3272 18.846 33.3197 18.8611C33.3158 18.8687 33.3127 18.8749 33.3108 18.8787C33.3098 18.8806 33.309 18.8822 33.3086 18.8831C33.3083 18.8836 33.3081 18.884 33.308 18.8842C33.3079 18.8843 33.3079 18.8844 33.3079 18.8845C33.3078 18.8845 33.3078 18.8846 33.3078 18.8846C33.3078 18.8846 33.3078 18.8846 33.3078 18.8846C33.3036 18.8929 33.3278 18.8451 33.3554 18.7899C33.4116 18.6774 33.5527 18.3943 33.7233 18.0285L-22.4598 -8.19088C-22.2905 -8.55361 -22.1509 -8.83382 -22.0961 -8.9434C-22.0692 -8.99708 -22.0458 -9.04342 -22.0507 -9.03366C-22.0508 -9.03357 -22.0512 -9.03269 -22.0518 -9.03162C-22.0524 -9.03048 -22.0532 -9.02874 -22.0543 -9.02663C-22.0564 -9.02249 -22.0597 -9.01593 -22.0637 -9.0079C-22.0717 -8.99212 -22.0844 -8.96684 -22.0999 -8.93574L33.3547 18.7911ZM32.8818 19.6984C33.1445 19.2142 33.4699 18.5838 33.8147 17.8328L-22.5332 -8.03076C-22.194 -8.76965 -21.8745 -9.38825 -21.6182 -9.86076L32.8818 19.6984ZM35.7625 12.2279C35.9652 11.3942 36.1281 10.5754 36.256 9.77587L-24.9655 -0.0184855C-24.84 -0.803122 -24.6801 -1.60694 -24.4809 -2.42591L35.7625 12.2279ZM36.6452 4.87869V4.87421H-25.3548V4.87869H36.6452ZM35.947 11.4167C36.1568 10.4452 36.311 9.50627 36.4208 8.60823L-25.1213 1.08679C-25.0138 0.206688 -24.8625 -0.714267 -24.6565 -1.66824L35.947 11.4167ZM36.6497 4.84751V4.84303H-25.3503V4.84751H36.6497ZM36.625 6.08206C36.6583 5.2489 36.6583 4.41485 36.625 3.58169L-25.3255 6.05975C-25.3582 5.24153 -25.3582 4.42222 -25.3255 3.604L36.625 6.08206ZM36.6497 4.82072V4.81634H-25.3503V4.82072H36.6497ZM36.625 6.05537C36.6581 5.22783 36.6587 4.38801 36.6243 3.53826L-25.3248 6.04979C-25.3587 5.21478 -25.358 4.3899 -25.3255 3.57731L36.625 6.05537ZM36.6497 4.79402V4.78516H-25.3503V4.79402H36.6497ZM36.2604 -0.112527C36.1325 -0.911554 35.9698 -1.73009 35.767 -2.56387L-24.4765 12.0896C-24.6757 11.2705 -24.8355 10.4669 -24.9609 9.68284L36.2604 -0.112527ZM36.6452 4.76285V4.75836H-25.3548V4.76285H36.6452ZM35.6015 -3.21805C35.1264 -5.00231 34.4919 -6.75001 33.701 -8.43868L-22.4462 17.8574C-23.2224 16.2002 -23.8449 14.4854 -24.311 12.7348L35.6015 -3.21805ZM36.6274 4.70936V4.70487H-25.3726V4.70936H36.6274ZM34.1807 -7.36611C33.6637 -8.58914 33.0407 -9.84579 32.2931 -11.11L-21.0742 20.4484C-21.8082 19.2071 -22.4192 17.9744 -22.9259 16.7759L34.1807 -7.36611ZM33.2741 -9.31896L33.2696 -9.32783L-22.0596 18.6485L-22.0551 18.6574L33.2741 -9.31896ZM27.5253 -17.26C27.5859 -17.1994 27.6396 -17.1452 27.6853 -17.0988C27.7308 -17.0527 27.7697 -17.0128 27.8 -16.9817C27.8153 -16.9661 27.8288 -16.9522 27.8403 -16.9404C27.8517 -16.9286 27.8614 -16.9186 27.869 -16.9108C27.8765 -16.9031 27.8825 -16.8968 27.8861 -16.8931C27.8894 -16.8897 27.8922 -16.8868 27.8916 -16.8874C27.8916 -16.8874 27.8916 -16.8874 27.8915 -16.8875C27.8915 -16.8876 27.8913 -16.8877 27.8912 -16.8878C27.891 -16.8881 27.8906 -16.8885 27.8901 -16.889C27.8891 -16.89 27.8875 -16.8916 27.8856 -16.8937C27.8818 -16.8976 27.8756 -16.904 27.8679 -16.9119C27.8602 -16.9199 27.8502 -16.9301 27.8387 -16.9421C27.827 -16.954 27.8133 -16.9681 27.7979 -16.984C27.7672 -17.0154 27.7279 -17.0556 27.682 -17.1022C27.636 -17.1489 27.5818 -17.2035 27.5209 -17.2644L-16.3197 26.5762C-16.3802 26.5156 -16.434 26.4614 -16.4796 26.4151C-16.5252 26.3689 -16.5641 26.329 -16.5944 26.2979C-16.6097 26.2823 -16.6232 26.2684 -16.6347 26.2566C-16.6461 26.2449 -16.6558 26.2348 -16.6634 26.227C-16.6708 26.2193 -16.6769 26.2131 -16.6805 26.2093C-16.6838 26.2059 -16.6866 26.203 -16.686 26.2036C-16.686 26.2036 -16.686 26.2037 -16.6859 26.2037C-16.6858 26.2038 -16.6857 26.2039 -16.6856 26.204C-16.6853 26.2043 -16.6849 26.2047 -16.6844 26.2052C-16.6835 26.2062 -16.6819 26.2079 -16.68 26.2099C-16.6761 26.2138 -16.6699 26.2202 -16.6623 26.2281C-16.6545 26.2361 -16.6446 26.2464 -16.633 26.2583C-16.6214 26.2702 -16.6077 26.2843 -16.5923 26.3002C-16.5616 26.3317 -16.5222 26.3719 -16.4764 26.4184C-16.4303 26.4651 -16.3762 26.5197 -16.3153 26.5807L27.5253 -17.26ZM32.0773 -11.4682L30.8055 -13.5565L-22.1479 18.6915L-20.8761 20.7799L32.0773 -11.4682ZM30.9 -13.4004C25.4117 -22.5331 15.6466 -28.2524 4.98054 -28.5581L3.20399 33.4164C-7.26745 33.1163 -16.8542 27.5014 -22.2423 18.5354L30.9 -13.4004ZM5.4841 -28.5396C5.54883 -28.5367 5.69433 -28.5296 5.58176 -28.535C5.53972 -28.5371 5.36918 -28.5454 5.15171 -28.5529C4.73627 -28.5673 3.82666 -28.592 2.6737 -28.5402L5.45721 33.3973C4.31311 33.4487 3.41248 33.4241 3.006 33.41C2.79303 33.4026 2.62697 33.3945 2.58941 33.3927C2.48131 33.3875 2.63126 33.3948 2.70043 33.3979L5.4841 -28.5396ZM-22.5588 19.1077L-21.5191 20.8258L31.5242 -11.2742L30.4845 -12.9922L-22.5588 19.1077ZM-16.8033 -17.2584L-17.2362 -16.83L26.3754 27.2384L26.8084 26.81L-16.8033 -17.2584ZM-17.4463 -16.62C-27.3668 -6.61238 -29.3789 8.80339 -22.3333 21.0278L31.3833 -9.93229C38.3005 2.0692 36.325 17.2035 26.5856 27.0284L-17.4463 -16.62ZM-22.32 21.0507C-19.9694 25.1211 -14.9485 32.2401 -5.43824 36.4316L19.5665 -20.3025C26.885 -17.077 30.3406 -11.7378 31.3701 -9.95522L-22.32 21.0507ZM-5.53603 36.3883C6.2419 41.6279 20.0317 39.1077 29.195 30.0326L-14.4331 -14.0195C-5.43695 -22.9291 8.10126 -25.4032 19.6643 -20.2592L-5.53603 36.3883ZM29.3013 29.9268L29.7609 29.4673L-14.0798 -14.3733L-14.5394 -13.9137L29.3013 29.9268ZM-8.58924 33.835L-6.91135 34.8837L25.9482 -17.6924L24.2703 -18.7411L-8.58924 33.835ZM-18.8115 -3.9906C-16.6075 -8.95159 -12.3999 -14.4746 -5.57447 -18.051L23.2013 36.8667C30.5807 33 35.2728 26.9792 37.8484 21.1819L-18.8115 -3.9906ZM-5.56588 -18.0555C2.26153 -22.1538 9.66136 -21.7279 13.9458 -20.8397L1.36062 39.8696C6.53971 40.9432 14.7234 41.3056 23.1927 36.8712L-5.56588 -18.0555ZM13.949 -20.839C18.2974 -19.9371 21.3114 -18.2476 22.8033 -17.303C24.5047 -16.2257 25.8659 -15.0689 26.9649 -13.9446L-17.3704 29.3956C-14.3083 32.528 -7.98979 37.9302 1.35739 39.8689L13.949 -20.839ZM26.9637 -13.9459C28.0474 -12.8375 29.1478 -11.4821 30.1647 -9.80675C31.0512 -8.34619 32.6551 -5.36989 33.4888 -1.0925L-27.366 10.7689C-25.5744 19.9605 -20.4104 26.2862 -17.3692 29.3968L26.9637 -13.9459ZM33.4886 -1.09333C34.3248 3.19607 34.6734 10.6355 30.4436 18.4546L-24.0887 -11.0451C-28.6476 -2.61763 -28.3757 5.58918 -27.3658 10.7697L33.4886 -1.09333ZM30.4464 18.4493C26.6603 25.4516 20.802 29.715 15.453 31.8497L-7.52732 -25.7342C-13.6826 -23.2778 -20.0221 -18.566 -24.0915 -11.0398L30.4464 18.4493Z" fill="#00863F" mask="url(#path-1-inside-1_2184_51236)"/>
<path d="M6.30066 5.61265e-05C2.83476 5.61265e-05 0.0175781 2.81597 0.0175781 6.28313C0.0175781 7.54307 0.390917 8.72073 1.04921 9.73092L0.346573 12.0758C0.315894 12.1784 0.345178 12.2895 0.422475 12.3637C0.499771 12.438 0.612028 12.4626 0.713322 12.4277L3.00848 11.6356C3.96413 12.2255 5.09426 12.5662 6.30072 12.5662C9.76789 12.5662 12.5838 9.75025 12.5838 6.28308C12.5838 2.81591 9.76782 5.61265e-05 6.30066 5.61265e-05ZM6.30066 0.571194C9.45928 0.571194 12.0125 3.12446 12.0125 6.28308C12.0125 9.44171 9.45928 11.995 6.30066 11.995C5.15568 11.995 4.09077 11.6591 3.20017 11.0814C3.12646 11.0335 3.03472 11.0224 2.95155 11.0511L1.05352 11.7061L1.63473 9.76658C1.65943 9.68411 1.64559 9.59486 1.59718 9.52374C0.951913 8.57697 0.588647 7.47432 0.588647 6.28301C0.588647 3.12439 3.14356 0.571194 6.30066 0.571194Z" fill="#00863F"/>
</svg>
