<svg width="20" height="20" viewBox="0 0 20 20" fill="none" xmlns="http://www.w3.org/2000/svg">
<path d="M12.0966 5.7317L11.5008 6.32753C11.3565 6.47183 11.3589 6.70654 11.5061 6.84789L13.9566 9.20128H3.48931C3.28812 9.20128 3.125 9.3644 3.125 9.56559V10.4157C3.125 10.6168 3.28812 10.78 3.48931 10.78H13.9566L11.5061 13.1334C11.3589 13.2747 11.3565 13.5094 11.5008 13.6537L12.0967 14.2496C12.2389 14.3918 12.4696 14.3918 12.6119 14.2496L16.6132 10.2482C16.7555 10.106 16.7555 9.87529 16.6132 9.733L12.6118 5.7317C12.4696 5.58943 12.2389 5.58943 12.0966 5.7317Z" fill="#CAB391"/>
</svg>
