<svg width="16" height="16" viewBox="0 0 16 16" fill="none" xmlns="http://www.w3.org/2000/svg">
<path d="M14.625 15.7188C12.8889 15.7188 11.1736 15.3403 9.47917 14.5833C7.78472 13.8264 6.24306 12.7535 4.85417 11.3646C3.46528 9.97569 2.39236 8.43403 1.63542 6.73958C0.878472 5.04514 0.5 3.32986 0.5 1.59375C0.5 1.34375 0.583333 1.13542 0.75 0.96875C0.916667 0.802083 1.125 0.71875 1.375 0.71875H4.75C4.94444 0.71875 5.11806 0.784722 5.27083 0.916667C5.42361 1.04861 5.51389 1.20486 5.54167 1.38542L6.08333 4.30208C6.11111 4.52431 6.10417 4.71181 6.0625 4.86458C6.02083 5.01736 5.94444 5.14931 5.83333 5.26042L3.8125 7.30208C4.09028 7.81597 4.42014 8.3125 4.80208 8.79167C5.18403 9.27083 5.60417 9.73264 6.0625 10.1771C6.49306 10.6076 6.94444 11.0069 7.41667 11.375C7.88889 11.7431 8.38889 12.0799 8.91667 12.3854L10.875 10.4271C11 10.3021 11.1632 10.2083 11.3646 10.1458C11.566 10.0833 11.7639 10.066 11.9583 10.0938L14.8333 10.6771C15.0278 10.7326 15.1875 10.8333 15.3125 10.9792C15.4375 11.125 15.5 11.2882 15.5 11.4688V14.8438C15.5 15.0938 15.4167 15.3021 15.25 15.4688C15.0833 15.6354 14.875 15.7188 14.625 15.7188ZM3.02083 5.71875L4.39583 4.34375L4.04167 2.38542H2.1875C2.25694 2.95486 2.35417 3.51736 2.47917 4.07292C2.60417 4.62847 2.78472 5.17708 3.02083 5.71875ZM10.4792 13.1771C11.0208 13.4132 11.5729 13.6007 12.1354 13.7396C12.6979 13.8785 13.2639 13.9688 13.8333 14.0104V12.1771L11.875 11.7812L10.4792 13.1771Z" fill="#3C3C3C"/>
</svg>
