<svg width="20" height="20" viewBox="0 0 20 20" fill="none" xmlns="http://www.w3.org/2000/svg">
<g id="call">
<mask id="mask0_93_8603" style="mask-type:alpha" maskUnits="userSpaceOnUse" x="0" y="0" width="20" height="20">
<rect id="Bounding box" width="20" height="20" fill="#D9D9D9"/>
</mask>
<g mask="url(#mask0_93_8603)">
<path id="call_2" d="M15.3 16C13.9111 16 12.5389 15.6972 11.1833 15.0917C9.82778 14.4861 8.59444 13.6278 7.48333 12.5167C6.37222 11.4056 5.51389 10.1722 4.90833 8.81667C4.30278 7.46111 4 6.08889 4 4.7C4 4.5 4.06667 4.33333 4.2 4.2C4.33333 4.06667 4.5 4 4.7 4H7.4C7.55556 4 7.69444 4.05278 7.81667 4.15833C7.93889 4.26389 8.01111 4.38889 8.03333 4.53333L8.46667 6.86667C8.48889 7.04444 8.48333 7.19444 8.45 7.31667C8.41667 7.43889 8.35556 7.54444 8.26667 7.63333L6.65 9.26667C6.87222 9.67778 7.13611 10.075 7.44167 10.4583C7.74722 10.8417 8.08333 11.2111 8.45 11.5667C8.79444 11.9111 9.15556 12.2306 9.53333 12.525C9.91111 12.8194 10.3111 13.0889 10.7333 13.3333L12.3 11.7667C12.4 11.6667 12.5306 11.5917 12.6917 11.5417C12.8528 11.4917 13.0111 11.4778 13.1667 11.5L15.4667 11.9667C15.6222 12.0111 15.75 12.0917 15.85 12.2083C15.95 12.325 16 12.4556 16 12.6V15.3C16 15.5 15.9333 15.6667 15.8 15.8C15.6667 15.9333 15.5 16 15.3 16ZM6.01667 8L7.11667 6.9L6.83333 5.33333H5.35C5.40556 5.78889 5.48333 6.23889 5.58333 6.68333C5.68333 7.12778 5.82778 7.56667 6.01667 8ZM11.9833 13.9667C12.4167 14.1556 12.8583 14.3056 13.3083 14.4167C13.7583 14.5278 14.2111 14.6 14.6667 14.6333V13.1667L13.1 12.85L11.9833 13.9667Z" fill="#5A5A5A"/>
</g>
</g>
</svg>
