<svg width="18" height="18" viewBox="0 0 18 18" fill="none" xmlns="http://www.w3.org/2000/svg">
<path d="M9.83342 8.6665V5.6665C9.83342 5.43039 9.75355 5.23248 9.59383 5.07275C9.43411 4.91303 9.23619 4.83317 9.00008 4.83317C8.76397 4.83317 8.56605 4.91303 8.40633 5.07275C8.24661 5.23248 8.16675 5.43039 8.16675 5.6665V8.979C8.16675 9.09012 8.18758 9.19775 8.22925 9.30192C8.27092 9.40609 8.33342 9.49984 8.41675 9.58317L11.1667 12.3332C11.3195 12.4859 11.514 12.5623 11.7501 12.5623C11.9862 12.5623 12.1806 12.4859 12.3334 12.3332C12.4862 12.1804 12.5626 11.9859 12.5626 11.7498C12.5626 11.5137 12.4862 11.3193 12.3334 11.1665L9.83342 8.6665ZM9.00008 17.3332C7.8473 17.3332 6.76397 17.1144 5.75008 16.6769C4.73619 16.2394 3.85425 15.6457 3.10425 14.8957C2.35425 14.1457 1.7605 13.2637 1.323 12.2498C0.885498 11.2359 0.666748 10.1526 0.666748 8.99984C0.666748 7.84706 0.885498 6.76373 1.323 5.74984C1.7605 4.73595 2.35425 3.854 3.10425 3.104C3.85425 2.354 4.73619 1.76025 5.75008 1.32275C6.76397 0.885254 7.8473 0.666504 9.00008 0.666504C10.1529 0.666504 11.2362 0.885254 12.2501 1.32275C13.264 1.76025 14.1459 2.354 14.8959 3.104C15.6459 3.854 16.2397 4.73595 16.6772 5.74984C17.1147 6.76373 17.3334 7.84706 17.3334 8.99984C17.3334 10.1526 17.1147 11.2359 16.6772 12.2498C16.2397 13.2637 15.6459 14.1457 14.8959 14.8957C14.1459 15.6457 13.264 16.2394 12.2501 16.6769C11.2362 17.1144 10.1529 17.3332 9.00008 17.3332ZM9.00008 15.6665C10.8473 15.6665 12.4202 15.0172 13.7188 13.7186C15.0174 12.42 15.6667 10.8471 15.6667 8.99984C15.6667 7.15262 15.0174 5.5797 13.7188 4.28109C12.4202 2.98248 10.8473 2.33317 9.00008 2.33317C7.15286 2.33317 5.57994 2.98248 4.28133 4.28109C2.98272 5.5797 2.33341 7.15262 2.33341 8.99984C2.33341 10.8471 2.98272 12.42 4.28133 13.7186C5.57994 15.0172 7.15286 15.6665 9.00008 15.6665Z" fill="#6E6E6E"/>
</svg>
