<svg width="18" height="14" viewBox="0 0 18 14" fill="none" xmlns="http://www.w3.org/2000/svg">
<path d="M2.33329 13.8841C1.87496 13.8841 1.4826 13.7209 1.15621 13.3945C0.82982 13.0681 0.666626 12.6758 0.666626 12.2174V2.21745C0.666626 1.75911 0.82982 1.36675 1.15621 1.04036C1.4826 0.713976 1.87496 0.550781 2.33329 0.550781H15.6666C16.125 0.550781 16.5173 0.713976 16.8437 1.04036C17.1701 1.36675 17.3333 1.75911 17.3333 2.21745V12.2174C17.3333 12.6758 17.1701 13.0681 16.8437 13.3945C16.5173 13.7209 16.125 13.8841 15.6666 13.8841H2.33329ZM9.52996 7.71953C9.20569 7.9222 8.79423 7.9222 8.46996 7.71953L2.33329 3.88411V12.2174H15.6666V3.88411L9.52996 7.71953ZM8.46996 6.05287C8.79423 6.25553 9.20569 6.25553 9.52996 6.05287L15.6666 2.21745H2.33329L8.46996 6.05287ZM2.33329 3.88411V2.21745V12.2174V3.88411Z" fill="#3C3C3C"/>
</svg>
