<svg width="18" height="13" viewBox="0 0 18 13" fill="none" xmlns="http://www.w3.org/2000/svg">
<path d="M8 12.6914C7.71667 12.6914 7.47917 12.5956 7.2875 12.4039C7.09583 12.2122 7 11.9747 7 11.6914C7 11.4081 7.09583 11.1706 7.2875 10.9789C7.47917 10.7872 7.71667 10.6914 8 10.6914H10C10.2833 10.6914 10.5208 10.7872 10.7125 10.9789C10.9042 11.1706 11 11.4081 11 11.6914C11 11.9747 10.9042 12.2122 10.7125 12.4039C10.5208 12.5956 10.2833 12.6914 10 12.6914H8ZM4 7.69141C3.71667 7.69141 3.47917 7.59557 3.2875 7.40391C3.09583 7.21224 3 6.97474 3 6.69141C3 6.40807 3.09583 6.17057 3.2875 5.97891C3.47917 5.78724 3.71667 5.69141 4 5.69141H14C14.2833 5.69141 14.5208 5.78724 14.7125 5.97891C14.9042 6.17057 15 6.40807 15 6.69141C15 6.97474 14.9042 7.21224 14.7125 7.40391C14.5208 7.59557 14.2833 7.69141 14 7.69141H4ZM1 2.69141C0.716667 2.69141 0.479167 2.59557 0.2875 2.40391C0.0958333 2.21224 0 1.97474 0 1.69141C0 1.40807 0.0958333 1.17057 0.2875 0.978906C0.479167 0.78724 0.716667 0.691406 1 0.691406H17C17.2833 0.691406 17.5208 0.78724 17.7125 0.978906C17.9042 1.17057 18 1.40807 18 1.69141C18 1.97474 17.9042 2.21224 17.7125 2.40391C17.5208 2.59557 17.2833 2.69141 17 2.69141H1Z" fill="#3C3C3C"/>
</svg>
