<svg width="32" height="32" viewBox="0 0 32 32" fill="none" xmlns="http://www.w3.org/2000/svg">
<mask id="mask0_541_14972" style="mask-type:alpha" maskUnits="userSpaceOnUse" x="0" y="0" width="32" height="32">
<rect width="32" height="32" fill="#D9D9D9"/>
</mask>
<g mask="url(#mask0_541_14972)">
<path d="M2.66675 8.00002C2.66675 7.26364 3.33003 6.66669 4.14823 6.66669H27.8519C28.6701 6.66669 29.3334 7.26364 29.3334 8.00002C29.3334 8.7364 28.6701 9.33335 27.8519 9.33335H4.14823C3.33003 9.33335 2.66675 8.7364 2.66675 8.00002Z" fill="#3C3C3C"/>
<path d="M2.66675 16C2.66675 15.2636 3.33003 14.6667 4.14823 14.6667H27.8519C28.6701 14.6667 29.3334 15.2636 29.3334 16C29.3334 16.7364 28.6701 17.3334 27.8519 17.3334H4.14823C3.33003 17.3334 2.66675 16.7364 2.66675 16Z" fill="#3C3C3C"/>
<path d="M4.14823 22.6667C3.33003 22.6667 2.66675 23.2636 2.66675 24C2.66675 24.7364 3.33003 25.3334 4.14823 25.3334H27.8519C28.6701 25.3334 29.3334 24.7364 29.3334 24C29.3334 23.2636 28.6701 22.6667 27.8519 22.6667H4.14823Z" fill="#3C3C3C"/>
</g>
</svg>
