<svg width="18" height="20" viewBox="0 0 18 20" fill="none" xmlns="http://www.w3.org/2000/svg">
<path id="Icon" d="M6.95238 1.90476C6.4264 1.90476 6 1.47837 6 0.952381C6 0.426395 6.4264 0 6.95238 0H11.0476C11.5736 0 12 0.426395 12 0.952381C12 1.47837 11.5736 1.90476 11.0476 1.90476H6.95238ZM8 11.381C8 11.9332 8.44771 12.381 9 12.381C9.55229 12.381 10 11.9332 10 11.381V7.66667C10 7.11438 9.55229 6.66667 9 6.66667C8.44771 6.66667 8 7.11438 8 7.66667V11.381ZM9 20C7.76667 20 6.60417 19.7738 5.5125 19.3214C4.42083 18.869 3.46667 18.254 2.65 17.4762C1.83333 16.6984 1.1875 15.7897 0.7125 14.75C0.2375 13.7103 0 12.6032 0 11.4286C0 10.254 0.2375 9.14682 0.7125 8.10714C1.1875 7.06746 1.83333 6.15873 2.65 5.38095C3.46667 4.60317 4.42083 3.9881 5.5125 3.53571C6.60417 3.08333 7.76667 2.85714 9 2.85714C10.0333 2.85714 11.025 3.01587 11.975 3.33333C12.925 3.65079 13.8167 4.11111 14.65 4.71429L15.3841 4.01512C15.757 3.65999 16.343 3.65999 16.7159 4.01512C17.1154 4.39562 17.1154 5.03295 16.7159 5.41345L16.05 6.04762C16.6833 6.84127 17.1667 7.69048 17.5 8.59524C17.8333 9.5 18 10.4444 18 11.4286C18 12.6032 17.7625 13.7103 17.2875 14.75C16.8125 15.7897 16.1667 16.6984 15.35 17.4762C14.5333 18.254 13.5792 18.869 12.4875 19.3214C11.3958 19.7738 10.2333 20 9 20ZM9 18.0952C10.9333 18.0952 12.5833 17.4444 13.95 16.1429C15.3167 14.8413 16 13.2698 16 11.4286C16 9.5873 15.3167 8.01587 13.95 6.71429C12.5833 5.4127 10.9333 4.7619 9 4.7619C7.06667 4.7619 5.41667 5.4127 4.05 6.71429C2.68333 8.01587 2 9.5873 2 11.4286C2 13.2698 2.68333 14.8413 4.05 16.1429C5.41667 17.4444 7.06667 18.0952 9 18.0952Z" fill="#5A5A5A"/>
</svg>
