<svg width="20" height="20" viewBox="0 0 20 20" fill="none" xmlns="http://www.w3.org/2000/svg">
<mask id="mask0_501_10935" style="mask-type:alpha" maskUnits="userSpaceOnUse" x="0" y="0" width="20" height="20">
<rect width="20" height="20" fill="#D9D9D9"/>
</mask>
<g mask="url(#mask0_501_10935)">
<path fill-rule="evenodd" clip-rule="evenodd" d="M3.3849 9.16669H6.21095C6.38449 7.18181 7.0369 5.27486 8.10377 3.60689C5.60306 4.34747 3.71552 6.51533 3.3849 9.16669ZM10 3.79991C8.81487 5.35922 8.08244 7.21671 7.88498 9.16669H12.115C11.9176 7.21671 11.1852 5.35923 10 3.79991ZM12.115 10.8334C11.9176 12.7833 11.1852 14.6408 10 16.2001C8.81486 14.6408 8.08244 12.7833 7.88498 10.8334H12.115ZM6.21095 10.8334H3.3849C3.71552 13.4847 5.60306 15.6526 8.10376 16.3931C7.03689 14.7252 6.38449 12.8182 6.21095 10.8334ZM11.8963 16.3931C12.9631 14.7252 13.6155 12.8182 13.789 10.8334H16.6151C16.2845 13.4847 14.3969 15.6525 11.8963 16.3931ZM16.6151 9.16669H13.789C13.6155 7.18181 12.9631 5.27487 11.8962 3.6069C14.3969 4.34749 16.2845 6.51534 16.6151 9.16669ZM1.66666 10C1.66666 5.39765 5.39761 1.66669 9.99999 1.66669C14.6024 1.66669 18.3333 5.39764 18.3333 10C18.3333 14.6024 14.6024 18.3334 9.99999 18.3334C5.39761 18.3334 1.66666 14.6024 1.66666 10Z" fill="#FEFEFE"/>
</g>
</svg>
