<svg width="20" height="20" viewBox="0 0 20 20" fill="none" xmlns="http://www.w3.org/2000/svg">
<g id="location_cards">
<mask id="mask0_93_8613" style="mask-type:alpha" maskUnits="userSpaceOnUse" x="0" y="0" width="20" height="20">
<rect id="Bounding box" width="20" height="20" fill="#D9D9D9"/>
</mask>
<g mask="url(#mask0_93_8613)">
<path id="location_on" d="M9.5 15.5692C10.8979 14.2169 11.9349 12.9884 12.6109 11.8836C13.287 10.7788 13.625 9.79776 13.625 8.94049C13.625 7.62441 13.2268 6.54679 12.4305 5.70763C11.6341 4.86848 10.6573 4.4489 9.5 4.4489C8.34271 4.4489 7.36589 4.86848 6.56953 5.70763C5.77318 6.54679 5.375 7.62441 5.375 8.94049C5.375 9.79776 5.71302 10.7788 6.38906 11.8836C7.0651 12.9884 8.10208 14.2169 9.5 15.5692ZM9.5 17C9.33958 17 9.17917 16.9698 9.01875 16.9094C8.85833 16.8491 8.7151 16.7585 8.58906 16.6378C7.84427 15.9133 7.18542 15.207 6.6125 14.5188C6.03958 13.8305 5.5612 13.1634 5.17734 12.5175C4.79349 11.8715 4.5013 11.2497 4.30078 10.652C4.10026 10.0543 4 9.48383 4 8.94049C4 7.12937 4.55286 5.6865 5.65859 4.6119C6.76432 3.5373 8.04479 3 9.5 3C10.9552 3 12.2357 3.5373 13.3414 4.6119C14.4471 5.6865 15 7.12937 15 8.94049C15 9.48383 14.8997 10.0543 14.6992 10.652C14.4987 11.2497 14.2065 11.8715 13.8227 12.5175C13.4388 13.1634 12.9604 13.8305 12.3875 14.5188C11.8146 15.207 11.1557 15.9133 10.4109 16.6378C10.2849 16.7585 10.1417 16.8491 9.98125 16.9094C9.82083 16.9698 9.66042 17 9.5 17ZM9.5 10.2445C9.87813 10.2445 10.2018 10.1026 10.4711 9.81889C10.7404 9.53514 10.875 9.19405 10.875 8.7956C10.875 8.39715 10.7404 8.05606 10.4711 7.77232C10.2018 7.48857 9.87813 7.3467 9.5 7.3467C9.12187 7.3467 8.79818 7.48857 8.52891 7.77232C8.25964 8.05606 8.125 8.39715 8.125 8.7956C8.125 9.19405 8.25964 9.53514 8.52891 9.81889C8.79818 10.1026 9.12187 10.2445 9.5 10.2445Z" fill="#5A5A5A"/>
</g>
</g>
</svg>
