<svg width="21" height="20" viewBox="0 0 21 20" fill="none" xmlns="http://www.w3.org/2000/svg">
<g id="location">
<mask id="mask0_580_27800" style="mask-type:alpha" maskUnits="userSpaceOnUse" x="0" y="0" width="21" height="20">
<rect id="Bounding box" x="0.5" width="20" height="20" fill="#D9D9D9"/>
</mask>
<g mask="url(#mask0_580_27800)">
<path id="location_on" d="M10.5 16.1253C12.1944 14.5698 13.4514 13.1566 14.2708 11.8857C15.0903 10.6149 15.5 9.48644 15.5 8.50033C15.5 6.98644 15.0173 5.74685 14.0521 4.78158C13.0868 3.8163 11.9028 3.33366 10.5 3.33366C9.0972 3.33366 7.91317 3.8163 6.9479 4.78158C5.98262 5.74685 5.49998 6.98644 5.49998 8.50033C5.49998 9.48644 5.9097 10.6149 6.72915 11.8857C7.54859 13.1566 8.80553 14.5698 10.5 16.1253ZM10.5 17.7712C10.3055 17.7712 10.1111 17.7364 9.91665 17.667C9.7222 17.5975 9.54859 17.4934 9.39581 17.3545C8.49304 16.5212 7.69442 15.7087 6.99998 14.917C6.30554 14.1253 5.72567 13.358 5.2604 12.6149C4.79512 11.8719 4.44095 11.1566 4.1979 10.4691C3.95484 9.78158 3.83331 9.12533 3.83331 8.50033C3.83331 6.41699 4.50345 4.75727 5.84373 3.52116C7.18401 2.28505 8.73609 1.66699 10.5 1.66699C12.2639 1.66699 13.816 2.28505 15.1562 3.52116C16.4965 4.75727 17.1666 6.41699 17.1666 8.50033C17.1666 9.12533 17.0451 9.78158 16.8021 10.4691C16.559 11.1566 16.2048 11.8719 15.7396 12.6149C15.2743 13.358 14.6944 14.1253 14 14.917C13.3055 15.7087 12.5069 16.5212 11.6041 17.3545C11.4514 17.4934 11.2778 17.5975 11.0833 17.667C10.8889 17.7364 10.6944 17.7712 10.5 17.7712ZM10.5 10.0003C10.9583 10.0003 11.3507 9.83713 11.6771 9.51074C12.0035 9.18435 12.1666 8.79199 12.1666 8.33366C12.1666 7.87533 12.0035 7.48296 11.6771 7.15658C11.3507 6.83019 10.9583 6.66699 10.5 6.66699C10.0416 6.66699 9.64929 6.83019 9.3229 7.15658C8.99651 7.48296 8.83331 7.87533 8.83331 8.33366C8.83331 8.79199 8.99651 9.18435 9.3229 9.51074C9.64929 9.83713 10.0416 10.0003 10.5 10.0003Z" fill="#FEFEFE"/>
</g>
</g>
</svg>
