<svg width="14" height="17" viewBox="0 0 14 17" fill="none" xmlns="http://www.w3.org/2000/svg">
<path d="M7.00004 15.3451C8.69448 13.7895 9.95143 12.3763 10.7709 11.1055C11.5903 9.83464 12 8.70616 12 7.72005C12 6.20616 11.5174 4.96658 10.5521 4.0013C9.58685 3.03602 8.40282 2.55339 7.00004 2.55339C5.59726 2.55339 4.41324 3.03602 3.44796 4.0013C2.48268 4.96658 2.00004 6.20616 2.00004 7.72005C2.00004 8.70616 2.40976 9.83464 3.22921 11.1055C4.04865 12.3763 5.3056 13.7895 7.00004 15.3451ZM7.00004 16.9909C6.8056 16.9909 6.61115 16.9562 6.41671 16.8867C6.22226 16.8173 6.04865 16.7131 5.89587 16.5742C4.9931 15.7409 4.19448 14.9284 3.50004 14.1367C2.8056 13.3451 2.22574 12.5777 1.76046 11.8346C1.29518 11.0916 0.941013 10.3763 0.697957 9.6888C0.454902 9.0013 0.333374 8.34505 0.333374 7.72005C0.333374 5.63672 1.00351 3.977 2.34379 2.74089C3.68407 1.50477 5.23615 0.886719 7.00004 0.886719C8.76393 0.886719 10.316 1.50477 11.6563 2.74089C12.9966 3.977 13.6667 5.63672 13.6667 7.72005C13.6667 8.34505 13.5452 9.0013 13.3021 9.6888C13.0591 10.3763 12.7049 11.0916 12.2396 11.8346C11.7743 12.5777 11.1945 13.3451 10.5 14.1367C9.8056 14.9284 9.00698 15.7409 8.10421 16.5742C7.95143 16.7131 7.77782 16.8173 7.58337 16.8867C7.38893 16.9562 7.19449 16.9909 7.00004 16.9909ZM7.00004 9.22005C7.45837 9.22005 7.85074 9.05686 8.17712 8.73047C8.50351 8.40408 8.66671 8.01172 8.66671 7.55339C8.66671 7.09505 8.50351 6.70269 8.17712 6.3763C7.85074 6.04991 7.45837 5.88672 7.00004 5.88672C6.54171 5.88672 6.14935 6.04991 5.82296 6.3763C5.49657 6.70269 5.33337 7.09505 5.33337 7.55339C5.33337 8.01172 5.49657 8.40408 5.82296 8.73047C6.14935 9.05686 6.54171 9.22005 7.00004 9.22005Z" fill="#3C3C3C"/>
</svg>
