<svg width="14" height="17" viewBox="0 0 14 17" fill="none" xmlns="http://www.w3.org/2000/svg">
<path d="M6.99992 15.1248C8.69436 13.5693 9.95131 12.1561 10.7708 10.8853C11.5902 9.61442 11.9999 8.48595 11.9999 7.49984C11.9999 5.98595 11.5173 4.74637 10.552 3.78109C9.58672 2.81581 8.4027 2.33317 6.99992 2.33317C5.59714 2.33317 4.41311 2.81581 3.44784 3.78109C2.48256 4.74637 1.99992 5.98595 1.99992 7.49984C1.99992 8.48595 2.40964 9.61442 3.22909 10.8853C4.04853 12.1561 5.30547 13.5693 6.99992 15.1248ZM6.99992 16.7707C6.80547 16.7707 6.61103 16.736 6.41659 16.6665C6.22214 16.5971 6.04853 16.4929 5.89575 16.354C4.99297 15.5207 4.19436 14.7082 3.49992 13.9165C2.80547 13.1248 2.22561 12.3575 1.76034 11.6144C1.29506 10.8714 0.940891 10.1561 0.697835 9.46859C0.45478 8.78109 0.333252 8.12484 0.333252 7.49984C0.333252 5.4165 1.00339 3.75678 2.34367 2.52067C3.68395 1.28456 5.23603 0.666504 6.99992 0.666504C8.76381 0.666504 10.3159 1.28456 11.6562 2.52067C12.9964 3.75678 13.6666 5.4165 13.6666 7.49984C13.6666 8.12484 13.5451 8.78109 13.302 9.46859C13.0589 10.1561 12.7048 10.8714 12.2395 11.6144C11.7742 12.3575 11.1944 13.1248 10.4999 13.9165C9.80547 14.7082 9.00686 15.5207 8.10408 16.354C7.95131 16.4929 7.7777 16.5971 7.58325 16.6665C7.38881 16.736 7.19436 16.7707 6.99992 16.7707ZM6.99992 8.99984C7.45825 8.99984 7.85061 8.83664 8.177 8.51025C8.50339 8.18387 8.66658 7.7915 8.66658 7.33317C8.66658 6.87484 8.50339 6.48248 8.177 6.15609C7.85061 5.8297 7.45825 5.6665 6.99992 5.6665C6.54158 5.6665 6.14922 5.8297 5.82284 6.15609C5.49645 6.48248 5.33325 6.87484 5.33325 7.33317C5.33325 7.7915 5.49645 8.18387 5.82284 8.51025C6.14922 8.83664 6.54158 8.99984 6.99992 8.99984Z" fill="#6E6E6E"/>
</svg>
