<svg width="18" height="18" viewBox="0 0 18 18" fill="none" xmlns="http://www.w3.org/2000/svg">
<g id="mail-01">
<path id="Icon" d="M3 6.55033L7.89895 9.91836C8.29565 10.1911 8.49401 10.3275 8.70976 10.3803C8.90034 10.4269 9.09966 10.4269 9.29024 10.3803C9.50599 10.3275 9.70435 10.1911 10.101 9.91836L15 6.55033M5.88 14.211H12.12C13.1281 14.211 13.6321 14.211 14.0172 14.0184C14.3559 13.8489 14.6312 13.5784 14.8038 13.2458C15 12.8676 15 12.3726 15 11.3825V7.61104C15 6.62095 15 6.1259 14.8038 5.74774C14.6312 5.41509 14.3559 5.14465 14.0172 4.97516C13.6321 4.78247 13.1281 4.78247 12.12 4.78247H5.88C4.87191 4.78247 4.36786 4.78247 3.98282 4.97516C3.64413 5.14465 3.36876 5.41509 3.19619 5.74774C3 6.1259 3 6.62095 3 7.61104V11.3825C3 12.3726 3 12.8676 3.19619 13.2458C3.36876 13.5784 3.64413 13.8489 3.98282 14.0184C4.36786 14.211 4.87191 14.211 5.88 14.211Z" stroke="#5A5A5A" stroke-width="1.3" stroke-linecap="round" stroke-linejoin="round"/>
</g>
</svg>
