<svg width="18" height="12" viewBox="0 0 18 12" fill="none" xmlns="http://www.w3.org/2000/svg">
<path fill-rule="evenodd" clip-rule="evenodd" d="M11.8925 0.894467C12.283 0.503937 12.9162 0.503926 13.3067 0.894444L17.7052 5.29278C17.8927 5.48031 17.9981 5.73467 17.9981 5.99989C17.9981 6.26511 17.8927 6.51947 17.7052 6.70701L13.3067 11.1055C12.9162 11.496 12.283 11.496 11.8925 11.1055C11.502 10.715 11.502 10.0818 11.8925 9.69127L14.5839 6.9999H0.998047C0.445762 6.9999 -0.00195312 6.55218 -0.00195312 5.9999C-0.00195312 5.44761 0.445762 4.9999 0.998047 4.9999H14.5838L11.8925 2.30868C11.502 1.91816 11.502 1.285 11.8925 0.894467Z" fill="#3C3C3C"/>
</svg>
