<svg width="20" height="20" viewBox="0 0 20 20" fill="none" xmlns="http://www.w3.org/2000/svg">
<g id="whatsapp">
<mask id="mask0_93_8608" style="mask-type:alpha" maskUnits="userSpaceOnUse" x="0" y="0" width="20" height="20">
<rect id="Bounding box" width="20" height="20" fill="#D9D9D9"/>
</mask>
<g mask="url(#mask0_93_8608)">
<path id="Icon" d="M10.5 3C6.91599 3 4 5.91599 4 9.5C4 10.5645 4.28038 11.5595 4.73506 12.4466L4.03047 14.9691C3.86636 15.5552 4.44588 16.1347 5.03213 15.9708L7.55659 15.2662C8.44299 15.7199 9.43652 16 10.5 16C14.084 16 17 13.084 17 9.5C17 5.91599 14.084 3 10.5 3ZM10.5 3.975C13.557 3.975 16.025 6.44296 16.025 9.5C16.025 12.557 13.557 15.025 10.5 15.025C9.52449 15.025 8.61195 14.7713 7.81621 14.328C7.70405 14.2655 7.57175 14.2498 7.44805 14.2842L5.04736 14.9539L5.71768 12.5545C5.7523 12.4306 5.73656 12.298 5.67388 12.1857C5.22969 11.3894 4.975 10.4765 4.975 9.5C4.975 6.44296 7.44296 3.975 10.5 3.975ZM8.30308 6.57563C8.1994 6.57563 8.03188 6.61452 7.88921 6.76987C7.74686 6.92457 7.34585 7.29978 7.34585 8.06353C7.34585 8.82728 7.90167 9.56485 7.97935 9.66885C8.0567 9.77187 9.05289 11.3897 10.6308 12.0118C11.9418 12.5285 12.2085 12.4256 12.4932 12.3996C12.7779 12.3743 13.4118 12.0247 13.5412 11.662C13.6705 11.2993 13.6706 10.9891 13.6326 10.925C13.5939 10.8604 13.4902 10.8212 13.3349 10.7435C13.1798 10.6658 12.4172 10.2905 12.2748 10.2389C12.1325 10.1872 12.0284 10.161 11.925 10.3163C11.8217 10.4717 11.5244 10.8211 11.4337 10.9244C11.3431 11.0284 11.2527 11.0414 11.0973 10.9638C10.9416 10.8854 10.4422 10.7219 9.84873 10.1932C9.38723 9.78204 9.07676 9.27386 8.98608 9.11851C8.89573 8.96381 8.97633 8.87878 9.054 8.80176C9.12388 8.73221 9.20929 8.62075 9.28696 8.53008C9.36399 8.4394 9.38954 8.37508 9.44121 8.27173C9.49289 8.1687 9.46719 8.07772 9.42852 8.00005C9.38984 7.92237 9.08803 7.15444 8.9499 6.84731C8.83388 6.58926 8.71161 6.58367 8.60078 6.57944C8.51043 6.57587 8.40643 6.57563 8.30308 6.57563Z" fill="#5A5A5A" stroke="#5A5A5A" stroke-width="0.2"/>
</g>
</g>
</svg>
